<?xml version="1.0" encoding="UTF-8" standalone="no"?>
<!DOCTYPE svg PUBLIC "-//W3C//DTD SVG 1.1//EN"
 "http://www.w3.org/Graphics/SVG/1.1/DTD/svg11.dtd">
<!-- Generated by graphviz version 2.43.0 (0)
 -->
<!-- Title: TourCanon::render Pages: 1 -->
<svg width="271pt" height="101pt"
 viewBox="0.00 0.00 271.00 101.00" xmlns="http://www.w3.org/2000/svg" xmlns:xlink="http://www.w3.org/1999/xlink">
<g id="graph0" class="graph" transform="scale(1 1) rotate(0) translate(4 97)">
<title>TourCanon::render</title>
<!-- Node1 -->
<g id="Node000001" class="node">
<title>Node1</title>
<g id="a_Node000001"><a xlink:title=" ">
<polygon fill="#999999" stroke="#666666" points="105,-56 0,-56 0,-37 105,-37 105,-56"/>
<text text-anchor="middle" x="52.5" y="-44" font-family="Helvetica,sans-Serif" font-size="10.00">TourCanon::render</text>
</a>
</g>
</g>
<!-- Node2 -->
<g id="Node000002" class="node">
<title>Node2</title>
<g id="a_Node000002"><a xlink:href="classRendu.html#a034fb504d82fad0cff314e166f8ccabc" target="_top" xlink:title=" ">
<polygon fill="white" stroke="#666666" points="251.5,-93 152.5,-93 152.5,-74 251.5,-74 251.5,-93"/>
<text text-anchor="middle" x="202" y="-81" font-family="Helvetica,sans-Serif" font-size="10.00">Rendu::drawRect</text>
</a>
</g>
</g>
<!-- Node1&#45;&gt;Node2 -->
<g id="edge1_Node000001_Node000002" class="edge">
<title>Node1&#45;&gt;Node2</title>
<g id="a_edge1_Node000001_Node000002"><a xlink:title=" ">
<path fill="none" stroke="#63b8ff" d="M91.48,-56.03C110.25,-60.74 133.09,-66.47 153.05,-71.47"/>
<polygon fill="#63b8ff" stroke="#63b8ff" points="152.34,-74.9 162.89,-73.94 154.04,-68.11 152.34,-74.9"/>
</a>
</g>
</g>
<!-- Node3 -->
<g id="Node000003" class="node">
<title>Node3</title>
<g id="a_Node000003"><a xlink:href="classRendu.html#aa4e8efb5aa903d2f2c381a4c26e62294" target="_top" xlink:title=" ">
<polygon fill="white" stroke="#666666" points="263,-56 141,-56 141,-37 263,-37 263,-56"/>
<text text-anchor="middle" x="202" y="-44" font-family="Helvetica,sans-Serif" font-size="10.00">Rendu::renderCopyEx</text>
</a>
</g>
</g>
<!-- Node1&#45;&gt;Node3 -->
<g id="edge2_Node000001_Node000003" class="edge">
<title>Node1&#45;&gt;Node3</title>
<g id="a_edge2_Node000001_Node000003"><a xlink:title=" ">
<path fill="none" stroke="#63b8ff" d="M105.09,-46.5C113.39,-46.5 122.1,-46.5 130.75,-46.5"/>
<polygon fill="#63b8ff" stroke="#63b8ff" points="130.84,-50 140.84,-46.5 130.84,-43 130.84,-50"/>
</a>
</g>
</g>
<!-- Node4 -->
<g id="Node000004" class="node">
<title>Node4</title>
<g id="a_Node000004"><a xlink:href="classRendu.html#adbc9c3ea4520b4db4d15dad9c64440c2" target="_top" xlink:title=" ">
<polygon fill="white" stroke="#666666" points="249,-19 155,-19 155,0 249,0 249,-19"/>
<text text-anchor="middle" x="202" y="-7" font-family="Helvetica,sans-Serif" font-size="10.00">Rendu::setColor</text>
</a>
</g>
</g>
<!-- Node1&#45;&gt;Node4 -->
<g id="edge3_Node000001_Node000004" class="edge">
<title>Node1&#45;&gt;Node4</title>
<g id="a_edge3_Node000001_Node000004"><a xlink:title=" ">
<path fill="none" stroke="#63b8ff" d="M91.48,-36.97C110.25,-32.26 133.09,-26.53 153.05,-21.53"/>
<polygon fill="#63b8ff" stroke="#63b8ff" points="154.04,-24.89 162.89,-19.06 152.34,-18.1 154.04,-24.89"/>
</a>
</g>
</g>
</g>
</svg>
