<?xml version="1.0" encoding="UTF-8" standalone="no"?>
<!DOCTYPE svg PUBLIC "-//W3C//DTD SVG 1.1//EN"
 "http://www.w3.org/Graphics/SVG/1.1/DTD/svg11.dtd">
<!-- Generated by graphviz version 2.43.0 (0)
 -->
<!-- Title: TourAntiAir::render Pages: 1 -->
<svg width="273pt" height="101pt"
 viewBox="0.00 0.00 273.00 101.00" xmlns="http://www.w3.org/2000/svg" xmlns:xlink="http://www.w3.org/1999/xlink">
<g id="graph0" class="graph" transform="scale(1 1) rotate(0) translate(4 97)">
<title>TourAntiAir::render</title>
<!-- Node1 -->
<g id="Node000001" class="node">
<title>Node1</title>
<g id="a_Node000001"><a xlink:title=" ">
<polygon fill="#999999" stroke="#666666" points="107,-56 0,-56 0,-37 107,-37 107,-56"/>
<text text-anchor="middle" x="53.5" y="-44" font-family="Helvetica,sans-Serif" font-size="10.00">TourAntiAir::render</text>
</a>
</g>
</g>
<!-- Node2 -->
<g id="Node000002" class="node">
<title>Node2</title>
<g id="a_Node000002"><a xlink:href="classRendu.html#a034fb504d82fad0cff314e166f8ccabc" target="_top" xlink:title=" ">
<polygon fill="white" stroke="#666666" points="253.5,-93 154.5,-93 154.5,-74 253.5,-74 253.5,-93"/>
<text text-anchor="middle" x="204" y="-81" font-family="Helvetica,sans-Serif" font-size="10.00">Rendu::drawRect</text>
</a>
</g>
</g>
<!-- Node1&#45;&gt;Node2 -->
<g id="edge1_Node000001_Node000002" class="edge">
<title>Node1&#45;&gt;Node2</title>
<g id="a_edge1_Node000001_Node000002"><a xlink:title=" ">
<path fill="none" stroke="#63b8ff" d="M92.74,-56.03C111.64,-60.74 134.63,-66.47 154.73,-71.47"/>
<polygon fill="#63b8ff" stroke="#63b8ff" points="154.08,-74.92 164.63,-73.94 155.77,-68.13 154.08,-74.92"/>
</a>
</g>
</g>
<!-- Node3 -->
<g id="Node000003" class="node">
<title>Node3</title>
<g id="a_Node000003"><a xlink:href="classRendu.html#aa4e8efb5aa903d2f2c381a4c26e62294" target="_top" xlink:title=" ">
<polygon fill="white" stroke="#666666" points="265,-56 143,-56 143,-37 265,-37 265,-56"/>
<text text-anchor="middle" x="204" y="-44" font-family="Helvetica,sans-Serif" font-size="10.00">Rendu::renderCopyEx</text>
</a>
</g>
</g>
<!-- Node1&#45;&gt;Node3 -->
<g id="edge2_Node000001_Node000003" class="edge">
<title>Node1&#45;&gt;Node3</title>
<g id="a_edge2_Node000001_Node000003"><a xlink:title=" ">
<path fill="none" stroke="#63b8ff" d="M107.27,-46.5C115.54,-46.5 124.2,-46.5 132.79,-46.5"/>
<polygon fill="#63b8ff" stroke="#63b8ff" points="132.8,-50 142.8,-46.5 132.8,-43 132.8,-50"/>
</a>
</g>
</g>
<!-- Node4 -->
<g id="Node000004" class="node">
<title>Node4</title>
<g id="a_Node000004"><a xlink:href="classRendu.html#adbc9c3ea4520b4db4d15dad9c64440c2" target="_top" xlink:title=" ">
<polygon fill="white" stroke="#666666" points="251,-19 157,-19 157,0 251,0 251,-19"/>
<text text-anchor="middle" x="204" y="-7" font-family="Helvetica,sans-Serif" font-size="10.00">Rendu::setColor</text>
</a>
</g>
</g>
<!-- Node1&#45;&gt;Node4 -->
<g id="edge3_Node000001_Node000004" class="edge">
<title>Node1&#45;&gt;Node4</title>
<g id="a_edge3_Node000001_Node000004"><a xlink:title=" ">
<path fill="none" stroke="#63b8ff" d="M92.74,-36.97C111.64,-32.26 134.63,-26.53 154.73,-21.53"/>
<polygon fill="#63b8ff" stroke="#63b8ff" points="155.77,-24.87 164.63,-19.06 154.08,-18.08 155.77,-24.87"/>
</a>
</g>
</g>
</g>
</svg>
