<?xml version="1.0" encoding="UTF-8" standalone="no"?>
<!DOCTYPE svg PUBLIC "-//W3C//DTD SVG 1.1//EN"
 "http://www.w3.org/Graphics/SVG/1.1/DTD/svg11.dtd">
<!-- Generated by graphviz version 2.43.0 (0)
 -->
<!-- Title: GameInteractionHandler::traiterEntrees Pages: 1 -->
<svg width="927pt" height="725pt"
 viewBox="0.00 0.00 927.00 724.50" xmlns="http://www.w3.org/2000/svg" xmlns:xlink="http://www.w3.org/1999/xlink">
<g id="graph0" class="graph" transform="scale(1 1) rotate(0) translate(4 720.5)">
<title>GameInteractionHandler::traiterEntrees</title>
<!-- Node1 -->
<g id="Node000001" class="node">
<title>Node1</title>
<g id="a_Node000001"><a xlink:title=" ">
<polygon fill="#999999" stroke="#666666" points="137,-291 0,-291 0,-261 137,-261 137,-291"/>
<text text-anchor="start" x="8" y="-279" font-family="Helvetica,sans-Serif" font-size="10.00">GameInteractionHandler</text>
<text text-anchor="middle" x="68.5" y="-268" font-family="Helvetica,sans-Serif" font-size="10.00">::traiterEntrees</text>
</a>
</g>
</g>
<!-- Node2 -->
<g id="Node000002" class="node">
<title>Node2</title>
<g id="a_Node000002"><a xlink:href="classGameInteractionHandler.html#a42375d57e01b64438c54f5fb55027463" target="_top" xlink:title=" ">
<polygon fill="white" stroke="#666666" points="337,-650 200,-650 200,-620 337,-620 337,-650"/>
<text text-anchor="start" x="208" y="-638" font-family="Helvetica,sans-Serif" font-size="10.00">GameInteractionHandler</text>
<text text-anchor="middle" x="268.5" y="-627" font-family="Helvetica,sans-Serif" font-size="10.00">::essayerAjouterTour</text>
</a>
</g>
</g>
<!-- Node1&#45;&gt;Node2 -->
<g id="edge1_Node000001_Node000002" class="edge">
<title>Node1&#45;&gt;Node2</title>
<g id="a_edge1_Node000001_Node000002"><a xlink:title=" ">
<path fill="none" stroke="#63b8ff" d="M71.09,-291.18C76.72,-338.47 99.55,-485.38 173,-577 185.92,-593.12 204.61,-605.91 221.96,-615.34"/>
<polygon fill="#63b8ff" stroke="#63b8ff" points="220.39,-618.46 230.88,-619.96 223.61,-612.25 220.39,-618.46"/>
</a>
</g>
</g>
<!-- Node12 -->
<g id="Node000012" class="node">
<title>Node12</title>
<g id="a_Node000012"><a xlink:href="classGameInteractionHandler.html#ace00bbdcd73488d9059cbd769eb11825" target="_top" xlink:title=" ">
<polygon fill="white" stroke="#666666" points="337,-568 200,-568 200,-538 337,-538 337,-568"/>
<text text-anchor="start" x="208" y="-556" font-family="Helvetica,sans-Serif" font-size="10.00">GameInteractionHandler</text>
<text text-anchor="middle" x="268.5" y="-545" font-family="Helvetica,sans-Serif" font-size="10.00">::gererClicSouris</text>
</a>
</g>
</g>
<!-- Node1&#45;&gt;Node12 -->
<g id="edge11_Node000001_Node000012" class="edge">
<title>Node1&#45;&gt;Node12</title>
<g id="a_edge11_Node000001_Node000012"><a xlink:title=" ">
<path fill="none" stroke="#63b8ff" d="M71.79,-291.02C78.92,-332.75 104.48,-451.28 173,-517 179.96,-523.67 188.28,-529.14 197.06,-533.61"/>
<polygon fill="#63b8ff" stroke="#63b8ff" points="195.8,-536.88 206.34,-537.92 198.74,-530.54 195.8,-536.88"/>
</a>
</g>
</g>
<!-- Node13 -->
<g id="Node000013" class="node">
<title>Node13</title>
<g id="a_Node000013"><a xlink:href="classGameInteractionHandler.html#a891a08d46d42777f483a1f678c7bff76" target="_top" xlink:title=" ">
<polygon fill="white" stroke="#666666" points="553,-386 416,-386 416,-356 553,-356 553,-386"/>
<text text-anchor="start" x="424" y="-374" font-family="Helvetica,sans-Serif" font-size="10.00">GameInteractionHandler</text>
<text text-anchor="middle" x="484.5" y="-363" font-family="Helvetica,sans-Serif" font-size="10.00">::getGridXDepuisSouris</text>
</a>
</g>
</g>
<!-- Node1&#45;&gt;Node13 -->
<g id="edge25_Node000001_Node000013" class="edge">
<title>Node1&#45;&gt;Node13</title>
<g id="a_edge25_Node000001_Node000013"><a xlink:title=" ">
<path fill="none" stroke="#63b8ff" d="M135.1,-291.05C209.33,-308.09 330.03,-335.78 408.09,-353.7"/>
<polygon fill="#63b8ff" stroke="#63b8ff" points="407.34,-357.11 417.87,-355.94 408.9,-350.29 407.34,-357.11"/>
</a>
</g>
</g>
<!-- Node16 -->
<g id="Node000016" class="node">
<title>Node16</title>
<g id="a_Node000016"><a xlink:href="classGameInteractionHandler.html#ab9d18a0c075eb8742d5cb47d4eedbfb0" target="_top" xlink:title=" ">
<polygon fill="white" stroke="#666666" points="553,-472 416,-472 416,-442 553,-442 553,-472"/>
<text text-anchor="start" x="424" y="-460" font-family="Helvetica,sans-Serif" font-size="10.00">GameInteractionHandler</text>
<text text-anchor="middle" x="484.5" y="-449" font-family="Helvetica,sans-Serif" font-size="10.00">::getGridYDepuisSouris</text>
</a>
</g>
</g>
<!-- Node1&#45;&gt;Node16 -->
<g id="edge26_Node000001_Node000016" class="edge">
<title>Node1&#45;&gt;Node16</title>
<g id="a_edge26_Node000001_Node000016"><a xlink:title=" ">
<path fill="none" stroke="#63b8ff" d="M73.93,-291.01C84.66,-324.32 115.46,-404.16 173,-438 243.51,-479.48 339.29,-478.52 405.74,-470.83"/>
<polygon fill="#63b8ff" stroke="#63b8ff" points="406.24,-474.29 415.74,-469.59 405.39,-467.35 406.24,-474.29"/>
</a>
</g>
</g>
<!-- Node19 -->
<g id="Node000019" class="node">
<title>Node19</title>
<g id="a_Node000019"><a xlink:href="classGameInteractionHandler.html#af72c0bd61cbd739cec6b86b2121c453d" target="_top" xlink:title=" ">
<polygon fill="white" stroke="#666666" points="553,-568 416,-568 416,-538 553,-538 553,-568"/>
<text text-anchor="start" x="424" y="-556" font-family="Helvetica,sans-Serif" font-size="10.00">GameInteractionHandler</text>
<text text-anchor="middle" x="484.5" y="-545" font-family="Helvetica,sans-Serif" font-size="10.00">::sourisDansMap</text>
</a>
</g>
</g>
<!-- Node1&#45;&gt;Node19 -->
<g id="edge35_Node000001_Node000019" class="edge">
<title>Node1&#45;&gt;Node19</title>
<g id="a_edge35_Node000001_Node000019"><a xlink:title=" ">
<path fill="none" stroke="#63b8ff" d="M73.1,-291.04C82.64,-327.6 112.16,-421.7 173,-470 191.42,-484.62 320.22,-515.98 406.04,-535.69"/>
<polygon fill="#63b8ff" stroke="#63b8ff" points="405.5,-539.15 416.02,-537.97 407.06,-532.33 405.5,-539.15"/>
</a>
</g>
</g>
<!-- Node21 -->
<g id="Node000021" class="node">
<title>Node21</title>
<g id="a_Node000021"><a xlink:href="classInputManager.html#a60fedb42fd7273db969ddebd559da916" target="_top" xlink:title=" ">
<polygon fill="white" stroke="#666666" points="557,-300.5 412,-300.5 412,-281.5 557,-281.5 557,-300.5"/>
<text text-anchor="middle" x="484.5" y="-288.5" font-family="Helvetica,sans-Serif" font-size="10.00">InputManager::getMouseX</text>
</a>
</g>
</g>
<!-- Node1&#45;&gt;Node21 -->
<g id="edge27_Node000001_Node000021" class="edge">
<title>Node1&#45;&gt;Node21</title>
<g id="a_edge27_Node000001_Node000021"><a xlink:title=" ">
<path fill="none" stroke="#63b8ff" d="M137.4,-278.46C209.74,-281.08 324.26,-285.23 401.56,-288.03"/>
<polygon fill="#63b8ff" stroke="#63b8ff" points="401.62,-291.54 411.74,-288.4 401.87,-284.54 401.62,-291.54"/>
</a>
</g>
</g>
<!-- Node22 -->
<g id="Node000022" class="node">
<title>Node22</title>
<g id="a_Node000022"><a xlink:href="classInputManager.html#a51b3f558039a5d4cb2811d0d6f9fd748" target="_top" xlink:title=" ">
<polygon fill="white" stroke="#666666" points="556.5,-263.5 412.5,-263.5 412.5,-244.5 556.5,-244.5 556.5,-263.5"/>
<text text-anchor="middle" x="484.5" y="-251.5" font-family="Helvetica,sans-Serif" font-size="10.00">InputManager::getMouseY</text>
</a>
</g>
</g>
<!-- Node1&#45;&gt;Node22 -->
<g id="edge28_Node000001_Node000022" class="edge">
<title>Node1&#45;&gt;Node22</title>
<g id="a_edge28_Node000001_Node000022"><a xlink:title=" ">
<path fill="none" stroke="#63b8ff" d="M137.4,-272.39C209.96,-268.54 324.95,-262.43 402.26,-258.32"/>
<polygon fill="#63b8ff" stroke="#63b8ff" points="402.64,-261.8 412.44,-257.78 402.27,-254.81 402.64,-261.8"/>
</a>
</g>
</g>
<!-- Node23 -->
<g id="Node000023" class="node">
<title>Node23</title>
<g id="a_Node000023"><a xlink:href="classInputManager.html#ab84a9919c32b144d0fffa20a9876e4a8" target="_top" xlink:title=" ">
<polygon fill="white" stroke="#666666" points="562,-115.5 407,-115.5 407,-96.5 562,-96.5 562,-115.5"/>
<text text-anchor="middle" x="484.5" y="-103.5" font-family="Helvetica,sans-Serif" font-size="10.00">InputManager::isKeyPressed</text>
</a>
</g>
</g>
<!-- Node1&#45;&gt;Node23 -->
<g id="edge29_Node000001_Node000023" class="edge">
<title>Node1&#45;&gt;Node23</title>
<g id="a_edge29_Node000001_Node000023"><a xlink:title=" ">
<path fill="none" stroke="#63b8ff" d="M83.33,-260.71C101.82,-241.23 136.53,-207.95 173,-190 251.07,-151.58 283.36,-179.68 364,-147 381.38,-139.96 382.63,-132.06 400,-125 406.29,-122.44 413,-120.19 419.77,-118.22"/>
<polygon fill="#63b8ff" stroke="#63b8ff" points="420.96,-121.52 429.7,-115.53 419.13,-114.77 420.96,-121.52"/>
</a>
</g>
</g>
<!-- Node24 -->
<g id="Node000024" class="node">
<title>Node24</title>
<g id="a_Node000024"><a xlink:href="classInputManager.html#a669b65fb053e4604aa97e0a4910e093e" target="_top" xlink:title=" ">
<polygon fill="white" stroke="#666666" points="364,-104.5 173,-104.5 173,-85.5 364,-85.5 364,-104.5"/>
<text text-anchor="middle" x="268.5" y="-92.5" font-family="Helvetica,sans-Serif" font-size="10.00">InputManager::isMouseButtonDown</text>
</a>
</g>
</g>
<!-- Node1&#45;&gt;Node24 -->
<g id="edge30_Node000001_Node000024" class="edge">
<title>Node1&#45;&gt;Node24</title>
<g id="a_edge30_Node000001_Node000024"><a xlink:title=" ">
<path fill="none" stroke="#63b8ff" d="M75.11,-260.77C87.55,-229.16 120.59,-156.28 173,-119 179.07,-114.68 185.84,-111.14 192.9,-108.23"/>
<polygon fill="#63b8ff" stroke="#63b8ff" points="194.48,-111.38 202.66,-104.65 192.07,-104.81 194.48,-111.38"/>
</a>
</g>
</g>
<!-- Node25 -->
<g id="Node000025" class="node">
<title>Node25</title>
<g id="a_Node000025"><a xlink:href="classInputManager.html#a010b10f066f540b855f7893b5f8a2fa2" target="_top" xlink:title=" ">
<polygon fill="white" stroke="#666666" points="566,-78 403,-78 403,-48 566,-48 566,-78"/>
<text text-anchor="start" x="411" y="-66" font-family="Helvetica,sans-Serif" font-size="10.00">InputManager::isMouseButton</text>
<text text-anchor="middle" x="484.5" y="-55" font-family="Helvetica,sans-Serif" font-size="10.00">Pressed</text>
</a>
</g>
</g>
<!-- Node1&#45;&gt;Node25 -->
<g id="edge31_Node000001_Node000025" class="edge">
<title>Node1&#45;&gt;Node25</title>
<g id="a_edge31_Node000001_Node000025"><a xlink:title=" ">
<path fill="none" stroke="#63b8ff" d="M76.99,-260.66C91.4,-232.96 125.76,-174.86 173,-147 247.2,-103.24 284.6,-147.41 364,-114 382.19,-106.35 382.3,-96.73 400,-88 404.63,-85.72 409.51,-83.6 414.49,-81.64"/>
<polygon fill="#63b8ff" stroke="#63b8ff" points="415.99,-84.82 424.15,-78.07 413.56,-78.25 415.99,-84.82"/>
</a>
</g>
</g>
<!-- Node26 -->
<g id="Node000026" class="node">
<title>Node26</title>
<g id="a_Node000026"><a xlink:href="classGameWorld.html#ad2f1d394b9ec12bdeb6985ef8e8146e4" target="_top" xlink:title=" ">
<polygon fill="white" stroke="#666666" points="338.5,-67.5 198.5,-67.5 198.5,-48.5 338.5,-48.5 338.5,-67.5"/>
<text text-anchor="middle" x="268.5" y="-55.5" font-family="Helvetica,sans-Serif" font-size="10.00">GameWorld::lancerVague</text>
</a>
</g>
</g>
<!-- Node1&#45;&gt;Node26 -->
<g id="edge32_Node000001_Node000026" class="edge">
<title>Node1&#45;&gt;Node26</title>
<g id="a_edge32_Node000001_Node000026"><a xlink:title=" ">
<path fill="none" stroke="#63b8ff" d="M72.65,-260.89C81.35,-223.25 109.35,-124.86 173,-77 177.8,-73.39 183.11,-70.42 188.69,-67.98"/>
<polygon fill="#63b8ff" stroke="#63b8ff" points="190.18,-71.16 198.3,-64.36 187.71,-64.61 190.18,-71.16"/>
</a>
</g>
</g>
<!-- Node28 -->
<g id="Node000028" class="node">
<title>Node28</title>
<g id="a_Node000028"><a xlink:href="classGameInteractionHandler.html#a682f6c5f93e5a501109d690450e56efa" target="_top" xlink:title=" ">
<polygon fill="white" stroke="#666666" points="337,-30 200,-30 200,0 337,0 337,-30"/>
<text text-anchor="start" x="208" y="-18" font-family="Helvetica,sans-Serif" font-size="10.00">GameInteractionHandler</text>
<text text-anchor="middle" x="268.5" y="-7" font-family="Helvetica,sans-Serif" font-size="10.00">::selectionnerTour</text>
</a>
</g>
</g>
<!-- Node1&#45;&gt;Node28 -->
<g id="edge34_Node000001_Node000028" class="edge">
<title>Node1&#45;&gt;Node28</title>
<g id="a_edge34_Node000001_Node000028"><a xlink:title=" ">
<path fill="none" stroke="#63b8ff" d="M71.5,-260.81C77.86,-218.69 101.64,-99.58 173,-39 178.2,-34.58 184.11,-30.96 190.37,-28"/>
<polygon fill="#63b8ff" stroke="#63b8ff" points="191.86,-31.17 199.76,-24.1 189.18,-24.7 191.86,-31.17"/>
</a>
</g>
</g>
<!-- Node29 -->
<g id="Node000029" class="node">
<title>Node29</title>
<g id="a_Node000029"><a xlink:href="classGameInteractionHandler.html#aa28051eaa0c36ab4a7a9a6375f521b4f" target="_top" xlink:title=" ">
<polygon fill="white" stroke="#666666" points="337,-429 200,-429 200,-399 337,-399 337,-429"/>
<text text-anchor="start" x="208" y="-417" font-family="Helvetica,sans-Serif" font-size="10.00">GameInteractionHandler</text>
<text text-anchor="middle" x="268.5" y="-406" font-family="Helvetica,sans-Serif" font-size="10.00">::terminerDragTour</text>
</a>
</g>
</g>
<!-- Node1&#45;&gt;Node29 -->
<g id="edge36_Node000001_Node000029" class="edge">
<title>Node1&#45;&gt;Node29</title>
<g id="a_edge36_Node000001_Node000029"><a xlink:title=" ">
<path fill="none" stroke="#63b8ff" d="M84.71,-291.09C104.11,-309.85 139.23,-342.18 173,-365 189,-375.81 207.68,-385.96 224.19,-394.19"/>
<polygon fill="#63b8ff" stroke="#63b8ff" points="223.1,-397.55 233.63,-398.8 226.18,-391.26 223.1,-397.55"/>
</a>
</g>
</g>
<!-- Node33 -->
<g id="Node000033" class="node">
<title>Node33</title>
<g id="a_Node000033"><a xlink:href="classGameInputHandler.html#ac8f94229346eaacb1b5b3a05f32bf287" target="_top" xlink:title=" ">
<polygon fill="white" stroke="#666666" points="341,-229 196,-229 196,-199 341,-199 341,-229"/>
<text text-anchor="start" x="204" y="-217" font-family="Helvetica,sans-Serif" font-size="10.00">GameInputHandler::traiter</text>
<text text-anchor="middle" x="268.5" y="-206" font-family="Helvetica,sans-Serif" font-size="10.00">Entrees</text>
</a>
</g>
</g>
<!-- Node1&#45;&gt;Node33 -->
<g id="edge47_Node000001_Node000033" class="edge">
<title>Node1&#45;&gt;Node33</title>
<g id="a_edge47_Node000001_Node000033"><a xlink:title=" ">
<path fill="none" stroke="#63b8ff" d="M116.35,-260.94C134.08,-255.28 154.46,-248.8 173,-243 184.39,-239.44 196.56,-235.67 208.25,-232.07"/>
<polygon fill="#63b8ff" stroke="#63b8ff" points="209.4,-235.38 217.93,-229.1 207.35,-228.69 209.4,-235.38"/>
</a>
</g>
</g>
<!-- Node3 -->
<g id="Node000003" class="node">
<title>Node3</title>
<g id="a_Node000003"><a xlink:href="classGameWorld.html#aacb8f92e84b9091fbaea01e18a53c6d4" target="_top" xlink:title=" ">
<polygon fill="white" stroke="#666666" points="549.5,-679.5 419.5,-679.5 419.5,-660.5 549.5,-660.5 549.5,-679.5"/>
<text text-anchor="middle" x="484.5" y="-667.5" font-family="Helvetica,sans-Serif" font-size="10.00">GameWorld::placerTour</text>
</a>
</g>
</g>
<!-- Node2&#45;&gt;Node3 -->
<g id="edge2_Node000002_Node000003" class="edge">
<title>Node2&#45;&gt;Node3</title>
<g id="a_edge2_Node000002_Node000003"><a xlink:title=" ">
<path fill="none" stroke="#63b8ff" d="M337.21,-646.07C362.07,-650.14 390.22,-654.74 415.14,-658.82"/>
<polygon fill="#63b8ff" stroke="#63b8ff" points="414.8,-662.31 425.24,-660.47 415.93,-655.4 414.8,-662.31"/>
</a>
</g>
</g>
<!-- Node4 -->
<g id="Node000004" class="node">
<title>Node4</title>
<g id="a_Node000004"><a xlink:href="classTourFactory.html#a1d20f371046f0ac95cc40d71599beecb" target="_top" xlink:title=" ">
<polygon fill="white" stroke="#666666" points="742,-679.5 620,-679.5 620,-660.5 742,-660.5 742,-679.5"/>
<text text-anchor="middle" x="681" y="-667.5" font-family="Helvetica,sans-Serif" font-size="10.00">TourFactory::creerTour</text>
</a>
</g>
</g>
<!-- Node3&#45;&gt;Node4 -->
<g id="edge3_Node000003_Node000004" class="edge">
<title>Node3&#45;&gt;Node4</title>
<g id="a_edge3_Node000003_Node000004"><a xlink:title=" ">
<path fill="none" stroke="#63b8ff" d="M549.73,-670C568.95,-670 590.12,-670 609.71,-670"/>
<polygon fill="#63b8ff" stroke="#63b8ff" points="609.8,-673.5 619.8,-670 609.8,-666.5 609.8,-673.5"/>
</a>
</g>
</g>
<!-- Node6 -->
<g id="Node000006" class="node">
<title>Node6</title>
<g id="a_Node000006"><a xlink:href="classCarte.html#a7e172109f8790d18ca121c22a652a70c" target="_top" xlink:title=" ">
<polygon fill="white" stroke="#666666" points="745,-578.5 617,-578.5 617,-559.5 745,-559.5 745,-578.5"/>
<text text-anchor="middle" x="681" y="-566.5" font-family="Helvetica,sans-Serif" font-size="10.00">Carte::estConstructible</text>
</a>
</g>
</g>
<!-- Node3&#45;&gt;Node6 -->
<g id="edge5_Node000003_Node000006" class="edge">
<title>Node3&#45;&gt;Node6</title>
<g id="a_edge5_Node000003_Node000006"><a xlink:title=" ">
<path fill="none" stroke="#63b8ff" d="M548.96,-660.49C555.95,-658.24 562.77,-655.45 569,-652 589.07,-640.89 587.08,-629.33 605,-615 619.78,-603.18 637.81,-592.03 652.49,-583.67"/>
<polygon fill="#63b8ff" stroke="#63b8ff" points="654.56,-586.52 661.59,-578.6 651.15,-580.41 654.56,-586.52"/>
</a>
</g>
</g>
<!-- Node8 -->
<g id="Node000008" class="node">
<title>Node8</title>
<g id="a_Node000008"><a xlink:href="classJoueur.html#ad18d1c7012dc9800669f44e5ec3e00d0" target="_top" xlink:title=" ">
<polygon fill="white" stroke="#666666" points="731.5,-642.5 630.5,-642.5 630.5,-623.5 731.5,-623.5 731.5,-642.5"/>
<text text-anchor="middle" x="681" y="-630.5" font-family="Helvetica,sans-Serif" font-size="10.00">Joueur::getArgent</text>
</a>
</g>
</g>
<!-- Node3&#45;&gt;Node8 -->
<g id="edge7_Node000003_Node000008" class="edge">
<title>Node3&#45;&gt;Node8</title>
<g id="a_edge7_Node000003_Node000008"><a xlink:title=" ">
<path fill="none" stroke="#63b8ff" d="M535.59,-660.47C561.44,-655.55 593.15,-649.52 620.27,-644.36"/>
<polygon fill="#63b8ff" stroke="#63b8ff" points="621.25,-647.74 630.42,-642.43 619.94,-640.86 621.25,-647.74"/>
</a>
</g>
</g>
<!-- Node9 -->
<g id="Node000009" class="node">
<title>Node9</title>
<g id="a_Node000009"><a xlink:href="classJoueur.html#ac333503e9a8a5c2e0501641fe45a2c42" target="_top" xlink:title=" ">
<polygon fill="white" stroke="#666666" points="721.5,-716.5 640.5,-716.5 640.5,-697.5 721.5,-697.5 721.5,-716.5"/>
<text text-anchor="middle" x="681" y="-704.5" font-family="Helvetica,sans-Serif" font-size="10.00">Joueur::payer</text>
</a>
</g>
</g>
<!-- Node3&#45;&gt;Node9 -->
<g id="edge8_Node000003_Node000009" class="edge">
<title>Node3&#45;&gt;Node9</title>
<g id="a_edge8_Node000003_Node000009"><a xlink:title=" ">
<path fill="none" stroke="#63b8ff" d="M535.59,-679.53C564.69,-685.06 601.22,-692.01 630.26,-697.54"/>
<polygon fill="#63b8ff" stroke="#63b8ff" points="629.71,-701 640.19,-699.43 631.02,-694.12 629.71,-701"/>
</a>
</g>
</g>
<!-- Node11 -->
<g id="Node000011" class="node">
<title>Node11</title>
<g id="a_Node000011"><a xlink:href="classGameWorld.html#a9e009f6b9f599713dd904208c1748d54" target="_top" xlink:title=" ">
<polygon fill="white" stroke="#666666" points="757,-527.5 605,-527.5 605,-508.5 757,-508.5 757,-527.5"/>
<text text-anchor="middle" x="681" y="-515.5" font-family="Helvetica,sans-Serif" font-size="10.00">GameWorld::tourExisteDeja</text>
</a>
</g>
</g>
<!-- Node3&#45;&gt;Node11 -->
<g id="edge10_Node000003_Node000011" class="edge">
<title>Node3&#45;&gt;Node11</title>
<g id="a_edge10_Node000003_Node000011"><a xlink:title=" ">
<path fill="none" stroke="#63b8ff" d="M549.86,-663.29C556.85,-660.56 563.43,-656.89 569,-652 604.82,-620.56 572.54,-585.89 605,-551 612.72,-542.71 622.89,-536.38 633.24,-531.6"/>
<polygon fill="#63b8ff" stroke="#63b8ff" points="634.86,-534.72 642.73,-527.63 632.16,-528.26 634.86,-534.72"/>
</a>
</g>
</g>
<!-- Node5 -->
<g id="Node000005" class="node">
<title>Node5</title>
<g id="a_Node000005"><a xlink:href="classTextureManager.html#afb2cc454e6e3d0ee5038618626b3f218" target="_top" xlink:title=" ">
<polygon fill="white" stroke="#666666" points="914.5,-679.5 797.5,-679.5 797.5,-660.5 914.5,-660.5 914.5,-679.5"/>
<text text-anchor="middle" x="856" y="-667.5" font-family="Helvetica,sans-Serif" font-size="10.00">TextureManager::get</text>
</a>
</g>
</g>
<!-- Node4&#45;&gt;Node5 -->
<g id="edge4_Node000004_Node000005" class="edge">
<title>Node4&#45;&gt;Node5</title>
<g id="a_edge4_Node000004_Node000005"><a xlink:title=" ">
<path fill="none" stroke="#63b8ff" d="M742.02,-670C756.61,-670 772.31,-670 787.23,-670"/>
<polygon fill="#63b8ff" stroke="#63b8ff" points="787.42,-673.5 797.42,-670 787.42,-666.5 787.42,-673.5"/>
</a>
</g>
</g>
<!-- Node7 -->
<g id="Node000007" class="node">
<title>Node7</title>
<g id="a_Node000007"><a xlink:href="classCarte.html#a341fc2f88c60b555428ac440192e2ba4" target="_top" xlink:title=" ">
<polygon fill="white" stroke="#666666" points="919,-578.5 793,-578.5 793,-559.5 919,-559.5 919,-578.5"/>
<text text-anchor="middle" x="856" y="-566.5" font-family="Helvetica,sans-Serif" font-size="10.00">Carte::estDansLaCarte</text>
</a>
</g>
</g>
<!-- Node6&#45;&gt;Node7 -->
<g id="edge6_Node000006_Node000007" class="edge">
<title>Node6&#45;&gt;Node7</title>
<g id="a_edge6_Node000006_Node000007"><a xlink:title=" ">
<path fill="none" stroke="#63b8ff" d="M745.44,-569C757.49,-569 770.19,-569 782.5,-569"/>
<polygon fill="#63b8ff" stroke="#63b8ff" points="782.73,-572.5 792.73,-569 782.73,-565.5 782.73,-572.5"/>
</a>
</g>
</g>
<!-- Node10 -->
<g id="Node000010" class="node">
<title>Node10</title>
<g id="a_Node000010"><a xlink:href="classJoueur.html#ae6be60af6eb59da598453e39d3e6d5a7" target="_top" xlink:title=" ">
<polygon fill="white" stroke="#666666" points="907,-716.5 805,-716.5 805,-697.5 907,-697.5 907,-716.5"/>
<text text-anchor="middle" x="856" y="-704.5" font-family="Helvetica,sans-Serif" font-size="10.00">Joueur::peutPayer</text>
</a>
</g>
</g>
<!-- Node9&#45;&gt;Node10 -->
<g id="edge9_Node000009_Node000010" class="edge">
<title>Node9&#45;&gt;Node10</title>
<g id="a_edge9_Node000009_Node000010"><a xlink:title=" ">
<path fill="none" stroke="#63b8ff" d="M721.69,-707C743.34,-707 770.58,-707 794.79,-707"/>
<polygon fill="#63b8ff" stroke="#63b8ff" points="794.95,-710.5 804.95,-707 794.95,-703.5 794.95,-710.5"/>
</a>
</g>
</g>
<!-- Node12&#45;&gt;Node13 -->
<g id="edge12_Node000012_Node000013" class="edge">
<title>Node12&#45;&gt;Node13</title>
<g id="a_edge12_Node000012_Node000013"><a xlink:title=" ">
<path fill="none" stroke="#63b8ff" d="M281.82,-537.94C313.61,-499.13 396.18,-398.52 400,-396 403.08,-393.96 406.34,-392.08 409.71,-390.35"/>
<polygon fill="#63b8ff" stroke="#63b8ff" points="411.24,-393.5 418.84,-386.12 408.3,-387.15 411.24,-393.5"/>
</a>
</g>
</g>
<!-- Node12&#45;&gt;Node16 -->
<g id="edge15_Node000012_Node000016" class="edge">
<title>Node12&#45;&gt;Node16</title>
<g id="a_edge15_Node000012_Node000016"><a xlink:title=" ">
<path fill="none" stroke="#63b8ff" d="M293.22,-537.78C318.77,-521.9 361.02,-497.11 400,-481 404.97,-478.95 410.17,-477 415.44,-475.17"/>
<polygon fill="#63b8ff" stroke="#63b8ff" points="416.59,-478.48 424.98,-472.01 414.39,-471.83 416.59,-478.48"/>
</a>
</g>
</g>
<!-- Node17 -->
<g id="Node000017" class="node">
<title>Node17</title>
<g id="a_Node000017"><a xlink:href="classHud.html#abe4141fe349b09a4d5021a880d3bb909" target="_top" xlink:title=" ">
<polygon fill="white" stroke="#666666" points="547,-642.5 422,-642.5 422,-623.5 547,-623.5 547,-642.5"/>
<text text-anchor="middle" x="484.5" y="-630.5" font-family="Helvetica,sans-Serif" font-size="10.00">Hud::getPaletteTypeAt</text>
</a>
</g>
</g>
<!-- Node12&#45;&gt;Node17 -->
<g id="edge18_Node000012_Node000017" class="edge">
<title>Node12&#45;&gt;Node17</title>
<g id="a_edge18_Node000012_Node000017"><a xlink:title=" ">
<path fill="none" stroke="#63b8ff" d="M296.72,-568.22C322.6,-582.13 362.96,-602.4 400,-615 406.51,-617.21 413.4,-619.22 420.32,-621.01"/>
<polygon fill="#63b8ff" stroke="#63b8ff" points="419.89,-624.51 430.43,-623.49 421.56,-617.71 419.89,-624.51"/>
</a>
</g>
</g>
<!-- Node18 -->
<g id="Node000018" class="node">
<title>Node18</title>
<g id="a_Node000018"><a xlink:href="classGameWorld.html#a2fa7b832cd877d2e8590e90f97ed8ab7" target="_top" xlink:title=" ">
<polygon fill="white" stroke="#666666" points="569,-716.5 400,-716.5 400,-697.5 569,-697.5 569,-716.5"/>
<text text-anchor="middle" x="484.5" y="-704.5" font-family="Helvetica,sans-Serif" font-size="10.00">GameWorld::preparerAchatTour</text>
</a>
</g>
</g>
<!-- Node12&#45;&gt;Node18 -->
<g id="edge19_Node000012_Node000018" class="edge">
<title>Node12&#45;&gt;Node18</title>
<g id="a_edge19_Node000012_Node000018"><a xlink:title=" ">
<path fill="none" stroke="#63b8ff" d="M304.48,-568.18C324.01,-578.08 347.64,-592.58 364,-611 389.36,-639.54 370.2,-665.13 400,-689 401.56,-690.25 403.19,-691.42 404.88,-692.51"/>
<polygon fill="#63b8ff" stroke="#63b8ff" points="403.27,-695.62 413.72,-697.36 406.64,-689.49 403.27,-695.62"/>
</a>
</g>
</g>
<!-- Node12&#45;&gt;Node19 -->
<g id="edge23_Node000012_Node000019" class="edge">
<title>Node12&#45;&gt;Node19</title>
<g id="a_edge23_Node000012_Node000019"><a xlink:title=" ">
<path fill="none" stroke="#63b8ff" d="M337.21,-553C358.98,-553 383.27,-553 405.7,-553"/>
<polygon fill="#63b8ff" stroke="#63b8ff" points="405.86,-556.5 415.86,-553 405.86,-549.5 405.86,-556.5"/>
</a>
</g>
</g>
<!-- Node20 -->
<g id="Node000020" class="node">
<title>Node20</title>
<g id="a_Node000020"><a xlink:href="classGameWorld.html#a032d027d5731484705128abc4f06c60e" target="_top" xlink:title=" ">
<polygon fill="white" stroke="#666666" points="565.5,-605.5 403.5,-605.5 403.5,-586.5 565.5,-586.5 565.5,-605.5"/>
<text text-anchor="middle" x="484.5" y="-593.5" font-family="Helvetica,sans-Serif" font-size="10.00">GameWorld::trouverIndexTour</text>
</a>
</g>
</g>
<!-- Node12&#45;&gt;Node20 -->
<g id="edge24_Node000012_Node000020" class="edge">
<title>Node12&#45;&gt;Node20</title>
<g id="a_edge24_Node000012_Node000020"><a xlink:title=" ">
<path fill="none" stroke="#63b8ff" d="M337.21,-566.61C365.89,-572.37 398.95,-579.01 426.37,-584.52"/>
<polygon fill="#63b8ff" stroke="#63b8ff" points="425.71,-587.96 436.21,-586.5 427.09,-581.1 425.71,-587.96"/>
</a>
</g>
</g>
<!-- Node14 -->
<g id="Node000014" class="node">
<title>Node14</title>
<g id="a_Node000014"><a xlink:href="classGameWorld.html#a158dd7f9b3891d15b76f35b6648125af" target="_top" xlink:title=" ">
<polygon fill="white" stroke="#666666" points="733,-454.5 629,-454.5 629,-435.5 733,-435.5 733,-454.5"/>
<text text-anchor="middle" x="681" y="-442.5" font-family="Helvetica,sans-Serif" font-size="10.00">GameWorld::carte</text>
</a>
</g>
</g>
<!-- Node13&#45;&gt;Node14 -->
<g id="edge13_Node000013_Node000014" class="edge">
<title>Node13&#45;&gt;Node14</title>
<g id="a_edge13_Node000013_Node000014"><a xlink:title=" ">
<path fill="none" stroke="#63b8ff" d="M539.28,-386.02C549.23,-389.11 559.49,-392.49 569,-396 597.41,-406.48 628.91,-420.63 651.07,-431.04"/>
<polygon fill="#63b8ff" stroke="#63b8ff" points="649.72,-434.27 660.26,-435.39 652.71,-427.94 649.72,-434.27"/>
</a>
</g>
</g>
<!-- Node15 -->
<g id="Node000015" class="node">
<title>Node15</title>
<g id="a_Node000015"><a xlink:href="classCarte.html#a9bc537f1cb048cb2703ecb7c8f6ffae2" target="_top" xlink:title=" ">
<polygon fill="white" stroke="#666666" points="738,-393.5 624,-393.5 624,-374.5 738,-374.5 738,-393.5"/>
<text text-anchor="middle" x="681" y="-381.5" font-family="Helvetica,sans-Serif" font-size="10.00">Carte::getTailleCase</text>
</a>
</g>
</g>
<!-- Node13&#45;&gt;Node15 -->
<g id="edge14_Node000013_Node000015" class="edge">
<title>Node13&#45;&gt;Node15</title>
<g id="a_edge14_Node000013_Node000015"><a xlink:title=" ">
<path fill="none" stroke="#63b8ff" d="M553.25,-375.53C572.86,-376.84 594.23,-378.27 613.74,-379.57"/>
<polygon fill="#63b8ff" stroke="#63b8ff" points="613.55,-383.07 623.76,-380.24 614.02,-376.08 613.55,-383.07"/>
</a>
</g>
</g>
<!-- Node16&#45;&gt;Node14 -->
<g id="edge16_Node000016_Node000014" class="edge">
<title>Node16&#45;&gt;Node14</title>
<g id="a_edge16_Node000016_Node000014"><a xlink:title=" ">
<path fill="none" stroke="#63b8ff" d="M553.25,-452.82C574.55,-451.51 597.92,-450.06 618.74,-448.78"/>
<polygon fill="#63b8ff" stroke="#63b8ff" points="618.97,-452.27 628.73,-448.16 618.53,-445.29 618.97,-452.27"/>
</a>
</g>
</g>
<!-- Node16&#45;&gt;Node15 -->
<g id="edge17_Node000016_Node000015" class="edge">
<title>Node16&#45;&gt;Node15</title>
<g id="a_edge17_Node000016_Node000015"><a xlink:title=" ">
<path fill="none" stroke="#63b8ff" d="M541.98,-441.9C551.08,-439.14 560.35,-436.14 569,-433 597.46,-422.68 628.96,-408.5 651.1,-398.05"/>
<polygon fill="#63b8ff" stroke="#63b8ff" points="652.76,-401.14 660.28,-393.68 649.75,-394.82 652.76,-401.14"/>
</a>
</g>
</g>
<!-- Node18&#45;&gt;Node4 -->
<g id="edge20_Node000018_Node000004" class="edge">
<title>Node18&#45;&gt;Node4</title>
<g id="a_edge20_Node000018_Node000004"><a xlink:title=" ">
<path fill="none" stroke="#63b8ff" d="M535.59,-697.47C561.24,-692.59 592.66,-686.61 619.64,-681.48"/>
<polygon fill="#63b8ff" stroke="#63b8ff" points="620.57,-684.87 629.74,-679.56 619.27,-677.99 620.57,-684.87"/>
</a>
</g>
</g>
<!-- Node18&#45;&gt;Node8 -->
<g id="edge21_Node000018_Node000008" class="edge">
<title>Node18&#45;&gt;Node8</title>
<g id="a_edge21_Node000018_Node000008"><a xlink:title=" ">
<path fill="none" stroke="#63b8ff" d="M548.96,-697.49C555.95,-695.24 562.77,-692.45 569,-689 589.07,-677.89 585.13,-663.47 605,-652 609.87,-649.19 615.16,-646.79 620.59,-644.74"/>
<polygon fill="#63b8ff" stroke="#63b8ff" points="622.1,-647.92 630.47,-641.42 619.87,-641.29 622.1,-647.92"/>
</a>
</g>
</g>
<!-- Node18&#45;&gt;Node9 -->
<g id="edge22_Node000018_Node000009" class="edge">
<title>Node18&#45;&gt;Node9</title>
<g id="a_edge22_Node000018_Node000009"><a xlink:title=" ">
<path fill="none" stroke="#63b8ff" d="M569.11,-707C589.96,-707 611.67,-707 630.29,-707"/>
<polygon fill="#63b8ff" stroke="#63b8ff" points="630.29,-710.5 640.29,-707 630.29,-703.5 630.29,-710.5"/>
</a>
</g>
</g>
<!-- Node27 -->
<g id="Node000027" class="node">
<title>Node27</title>
<g id="a_Node000027"><a xlink:href="classWaveManager.html#a596565ed15699c7bbb760337e216f04d" target="_top" xlink:title=" ">
<polygon fill="white" stroke="#666666" points="560.5,-29.5 408.5,-29.5 408.5,-10.5 560.5,-10.5 560.5,-29.5"/>
<text text-anchor="middle" x="484.5" y="-17.5" font-family="Helvetica,sans-Serif" font-size="10.00">WaveManager::lancerVague</text>
</a>
</g>
</g>
<!-- Node26&#45;&gt;Node27 -->
<g id="edge33_Node000026_Node000027" class="edge">
<title>Node26&#45;&gt;Node27</title>
<g id="a_edge33_Node000026_Node000027"><a xlink:title=" ">
<path fill="none" stroke="#63b8ff" d="M323.23,-48.46C352.48,-43.27 388.87,-36.8 419.58,-31.35"/>
<polygon fill="#63b8ff" stroke="#63b8ff" points="420.52,-34.74 429.75,-29.54 419.29,-27.85 420.52,-34.74"/>
</a>
</g>
</g>
<!-- Node29&#45;&gt;Node13 -->
<g id="edge38_Node000029_Node000013" class="edge">
<title>Node29&#45;&gt;Node13</title>
<g id="a_edge38_Node000029_Node000013"><a xlink:title=" ">
<path fill="none" stroke="#63b8ff" d="M337.21,-400.39C359.08,-396 383.49,-391.1 406,-386.57"/>
<polygon fill="#63b8ff" stroke="#63b8ff" points="406.75,-389.99 415.86,-384.59 405.37,-383.13 406.75,-389.99"/>
</a>
</g>
</g>
<!-- Node29&#45;&gt;Node16 -->
<g id="edge39_Node000029_Node000016" class="edge">
<title>Node29&#45;&gt;Node16</title>
<g id="a_edge39_Node000029_Node000016"><a xlink:title=" ">
<path fill="none" stroke="#63b8ff" d="M337.21,-427.61C359.08,-432 383.49,-436.9 406,-441.43"/>
<polygon fill="#63b8ff" stroke="#63b8ff" points="405.37,-444.87 415.86,-443.41 406.75,-438.01 405.37,-444.87"/>
</a>
</g>
</g>
<!-- Node29&#45;&gt;Node19 -->
<g id="edge46_Node000029_Node000019" class="edge">
<title>Node29&#45;&gt;Node19</title>
<g id="a_edge46_Node000029_Node000019"><a xlink:title=" ">
<path fill="none" stroke="#63b8ff" d="M290.59,-429.15C310.31,-443.67 340.19,-466.62 364,-489 381.43,-505.38 379.72,-516.32 400,-529 402.75,-530.72 405.63,-532.32 408.59,-533.81"/>
<polygon fill="#63b8ff" stroke="#63b8ff" points="407.14,-537 417.7,-537.95 410.04,-530.62 407.14,-537"/>
</a>
</g>
</g>
<!-- Node30 -->
<g id="Node000030" class="node">
<title>Node30</title>
<g id="a_Node000030"><a xlink:href="classJoueur.html#a9100b4141ff1303f12062b7fb79f817b" target="_top" xlink:title=" ">
<polygon fill="white" stroke="#666666" points="544.5,-337.5 424.5,-337.5 424.5,-318.5 544.5,-318.5 544.5,-337.5"/>
<text text-anchor="middle" x="484.5" y="-325.5" font-family="Helvetica,sans-Serif" font-size="10.00">Joueur::ajouterArgent</text>
</a>
</g>
</g>
<!-- Node29&#45;&gt;Node30 -->
<g id="edge37_Node000029_Node000030" class="edge">
<title>Node29&#45;&gt;Node30</title>
<g id="a_edge37_Node000029_Node000030"><a xlink:title=" ">
<path fill="none" stroke="#63b8ff" d="M294.16,-398.96C319.79,-383.91 361.47,-361.02 400,-347 407.09,-344.42 414.65,-342.12 422.22,-340.08"/>
<polygon fill="#63b8ff" stroke="#63b8ff" points="423.3,-343.41 432.13,-337.56 421.58,-336.63 423.3,-343.41"/>
</a>
</g>
</g>
<!-- Node31 -->
<g id="Node000031" class="node">
<title>Node31</title>
<g id="a_Node000031"><a xlink:href="classGameWorld.html#a25d536bd723c3c0d4348a257daa0dfd5" target="_top" xlink:title=" ">
<polygon fill="white" stroke="#666666" points="539.5,-423.5 429.5,-423.5 429.5,-404.5 539.5,-404.5 539.5,-423.5"/>
<text text-anchor="middle" x="484.5" y="-411.5" font-family="Helvetica,sans-Serif" font-size="10.00">GameWorld::joueur</text>
</a>
</g>
</g>
<!-- Node29&#45;&gt;Node31 -->
<g id="edge40_Node000029_Node000031" class="edge">
<title>Node29&#45;&gt;Node31</title>
<g id="a_edge40_Node000029_Node000031"><a xlink:title=" ">
<path fill="none" stroke="#63b8ff" d="M337.21,-414C363.48,-414 393.42,-414 419.34,-414"/>
<polygon fill="#63b8ff" stroke="#63b8ff" points="419.43,-417.5 429.43,-414 419.43,-410.5 419.43,-417.5"/>
</a>
</g>
</g>
<!-- Node32 -->
<g id="Node000032" class="node">
<title>Node32</title>
<g id="a_Node000032"><a xlink:href="classGameWorld.html#afd04ddcdf97ae0631220b59787b0f455" target="_top" xlink:title=" ">
<polygon fill="white" stroke="#666666" points="560.5,-520 408.5,-520 408.5,-490 560.5,-490 560.5,-520"/>
<text text-anchor="start" x="416.5" y="-508" font-family="Helvetica,sans-Serif" font-size="10.00">GameWorld::placerTourDeja</text>
<text text-anchor="middle" x="484.5" y="-497" font-family="Helvetica,sans-Serif" font-size="10.00">Payee</text>
</a>
</g>
</g>
<!-- Node29&#45;&gt;Node32 -->
<g id="edge41_Node000029_Node000032" class="edge">
<title>Node29&#45;&gt;Node32</title>
<g id="a_edge41_Node000029_Node000032"><a xlink:title=" ">
<path fill="none" stroke="#63b8ff" d="M295.29,-429.15C321.13,-443.85 362.35,-466.09 400,-481 405.08,-483.01 410.4,-484.94 415.79,-486.76"/>
<polygon fill="#63b8ff" stroke="#63b8ff" points="414.92,-490.16 425.51,-489.92 417.08,-483.5 414.92,-490.16"/>
</a>
</g>
</g>
<!-- Node32&#45;&gt;Node4 -->
<g id="edge42_Node000032_Node000004" class="edge">
<title>Node32&#45;&gt;Node4</title>
<g id="a_edge42_Node000032_Node000004"><a xlink:title=" ">
<path fill="none" stroke="#63b8ff" d="M557.55,-520.15C561.71,-522.67 565.58,-525.6 569,-529 609.37,-569.18 563.74,-612.73 605,-652 606.73,-653.65 608.59,-655.16 610.55,-656.53"/>
<polygon fill="#63b8ff" stroke="#63b8ff" points="609.25,-659.83 619.66,-661.77 612.74,-653.76 609.25,-659.83"/>
</a>
</g>
</g>
<!-- Node32&#45;&gt;Node6 -->
<g id="edge43_Node000032_Node000006" class="edge">
<title>Node32&#45;&gt;Node6</title>
<g id="a_edge43_Node000032_Node000006"><a xlink:title=" ">
<path fill="none" stroke="#63b8ff" d="M540.01,-520.1C549.7,-522.95 559.67,-525.98 569,-529 594.86,-537.37 623.73,-547.8 645.54,-555.92"/>
<polygon fill="#63b8ff" stroke="#63b8ff" points="644.44,-559.24 655.03,-559.47 646.89,-552.69 644.44,-559.24"/>
</a>
</g>
</g>
<!-- Node32&#45;&gt;Node8 -->
<g id="edge44_Node000032_Node000008" class="edge">
<title>Node32&#45;&gt;Node8</title>
<g id="a_edge44_Node000032_Node000008"><a xlink:title=" ">
<path fill="none" stroke="#63b8ff" d="M554.11,-520.01C559.4,-522.55 564.44,-525.52 569,-529 593.43,-547.62 583.2,-566.36 605,-588 617.64,-600.55 634.45,-611.05 648.94,-618.74"/>
<polygon fill="#63b8ff" stroke="#63b8ff" points="647.57,-621.96 658.07,-623.38 650.74,-615.73 647.57,-621.96"/>
</a>
</g>
</g>
<!-- Node32&#45;&gt;Node11 -->
<g id="edge45_Node000032_Node000011" class="edge">
<title>Node32&#45;&gt;Node11</title>
<g id="a_edge45_Node000032_Node000011"><a xlink:title=" ">
<path fill="none" stroke="#63b8ff" d="M560.7,-510.03C571.75,-510.76 583.2,-511.53 594.44,-512.28"/>
<polygon fill="#63b8ff" stroke="#63b8ff" points="594.47,-515.79 604.68,-512.97 594.94,-508.81 594.47,-515.79"/>
</a>
</g>
</g>
<!-- Node33&#45;&gt;Node21 -->
<g id="edge48_Node000033_Node000021" class="edge">
<title>Node33&#45;&gt;Node21</title>
<g id="a_edge48_Node000033_Node000021"><a xlink:title=" ">
<path fill="none" stroke="#63b8ff" d="M298.08,-229.05C324.05,-242.22 363.75,-261.05 400,-273 406.78,-275.23 413.96,-277.27 421.15,-279.09"/>
<polygon fill="#63b8ff" stroke="#63b8ff" points="420.39,-282.51 430.93,-281.45 422.03,-275.7 420.39,-282.51"/>
</a>
</g>
</g>
<!-- Node33&#45;&gt;Node22 -->
<g id="edge49_Node000033_Node000022" class="edge">
<title>Node33&#45;&gt;Node22</title>
<g id="a_edge49_Node000033_Node000022"><a xlink:title=" ">
<path fill="none" stroke="#63b8ff" d="M341.06,-227.38C367.55,-232.33 397.32,-237.89 422.76,-242.65"/>
<polygon fill="#63b8ff" stroke="#63b8ff" points="422.17,-246.1 432.64,-244.49 423.46,-239.22 422.17,-246.1"/>
</a>
</g>
</g>
<!-- Node33&#45;&gt;Node23 -->
<g id="edge51_Node000033_Node000023" class="edge">
<title>Node33&#45;&gt;Node23</title>
<g id="a_edge51_Node000033_Node000023"><a xlink:title=" ">
<path fill="none" stroke="#63b8ff" d="M339.53,-199C348.28,-195.3 356.7,-190.71 364,-185 388.49,-165.83 374.82,-143.25 400,-125 402.57,-123.14 405.28,-121.46 408.11,-119.94"/>
<polygon fill="#63b8ff" stroke="#63b8ff" points="409.85,-122.99 417.45,-115.61 406.91,-116.64 409.85,-122.99"/>
</a>
</g>
</g>
<!-- Node33&#45;&gt;Node25 -->
<g id="edge52_Node000033_Node000025" class="edge">
<title>Node33&#45;&gt;Node25</title>
<g id="a_edge52_Node000033_Node000025"><a xlink:title=" ">
<path fill="none" stroke="#63b8ff" d="M296.59,-198.91C316.81,-186.72 344.24,-168.17 364,-147 384.96,-124.54 375.68,-106.76 400,-88 402.44,-86.12 405.02,-84.38 407.7,-82.77"/>
<polygon fill="#63b8ff" stroke="#63b8ff" points="409.37,-85.85 416.56,-78.07 406.08,-79.67 409.37,-85.85"/>
</a>
</g>
</g>
<!-- Node34 -->
<g id="Node000034" class="node">
<title>Node34</title>
<g id="a_Node000034"><a xlink:href="classBouttonManager.html#adfb57e225a322e87bb08ab9af6c41aa5" target="_top" xlink:title=" ">
<polygon fill="white" stroke="#666666" points="565,-226.5 404,-226.5 404,-207.5 565,-207.5 565,-226.5"/>
<text text-anchor="middle" x="484.5" y="-214.5" font-family="Helvetica,sans-Serif" font-size="10.00">BouttonManager::handleClick</text>
</a>
</g>
</g>
<!-- Node33&#45;&gt;Node34 -->
<g id="edge50_Node000033_Node000034" class="edge">
<title>Node33&#45;&gt;Node34</title>
<g id="a_edge50_Node000033_Node000034"><a xlink:title=" ">
<path fill="none" stroke="#63b8ff" d="M341.06,-215C357.92,-215.24 376.1,-215.49 393.65,-215.74"/>
<polygon fill="#63b8ff" stroke="#63b8ff" points="393.85,-219.24 403.9,-215.88 393.95,-212.24 393.85,-219.24"/>
</a>
</g>
</g>
<!-- Node35 -->
<g id="Node000035" class="node">
<title>Node35</title>
<g id="a_Node000035"><a xlink:href="classInputManager.html#ab9cdcdb633b625e035629c5025521aa8" target="_top" xlink:title=" ">
<polygon fill="white" stroke="#666666" points="556,-189.5 413,-189.5 413,-170.5 556,-170.5 556,-189.5"/>
<text text-anchor="middle" x="484.5" y="-177.5" font-family="Helvetica,sans-Serif" font-size="10.00">InputManager::shouldQuit</text>
</a>
</g>
</g>
<!-- Node33&#45;&gt;Node35 -->
<g id="edge53_Node000033_Node000035" class="edge">
<title>Node33&#45;&gt;Node35</title>
<g id="a_edge53_Node000033_Node000035"><a xlink:title=" ">
<path fill="none" stroke="#63b8ff" d="M341.06,-202.63C364.34,-198.93 390.15,-194.83 413.34,-191.15"/>
<polygon fill="#63b8ff" stroke="#63b8ff" points="414.11,-194.57 423.44,-189.54 413.01,-187.66 414.11,-194.57"/>
</a>
</g>
</g>
<!-- Node36 -->
<g id="Node000036" class="node">
<title>Node36</title>
<g id="a_Node000036"><a xlink:href="classInputManager.html#a136d6afa55ee74eeda5eb72e78e3ee97" target="_top" xlink:title=" ">
<polygon fill="white" stroke="#666666" points="546.5,-152.5 422.5,-152.5 422.5,-133.5 546.5,-133.5 546.5,-152.5"/>
<text text-anchor="middle" x="484.5" y="-140.5" font-family="Helvetica,sans-Serif" font-size="10.00">InputManager::update</text>
</a>
</g>
</g>
<!-- Node33&#45;&gt;Node36 -->
<g id="edge54_Node000033_Node000036" class="edge">
<title>Node33&#45;&gt;Node36</title>
<g id="a_edge54_Node000033_Node000036"><a xlink:title=" ">
<path fill="none" stroke="#63b8ff" d="M327.4,-198.95C339.71,-195 352.47,-190.33 364,-185 381.23,-177.03 382.48,-169.33 400,-162 405.94,-159.52 412.26,-157.33 418.66,-155.41"/>
<polygon fill="#63b8ff" stroke="#63b8ff" points="420.05,-158.65 428.75,-152.61 418.18,-151.91 420.05,-158.65"/>
</a>
</g>
</g>
</g>
</svg>
