<?xml version="1.0" encoding="UTF-8" standalone="no"?>
<!DOCTYPE svg PUBLIC "-//W3C//DTD SVG 1.1//EN"
 "http://www.w3.org/Graphics/SVG/1.1/DTD/svg11.dtd">
<!-- Generated by graphviz version 2.43.0 (0)
 -->
<!-- Title: Tour::update Pages: 1 -->
<svg width="546pt" height="157pt"
 viewBox="0.00 0.00 546.00 157.00" xmlns="http://www.w3.org/2000/svg" xmlns:xlink="http://www.w3.org/1999/xlink">
<g id="graph0" class="graph" transform="scale(1 1) rotate(0) translate(4 153)">
<title>Tour::update</title>
<!-- Node1 -->
<g id="Node000001" class="node">
<title>Node1</title>
<g id="a_Node000001"><a xlink:title="Met à jour la tour pendant une frame.">
<polygon fill="#999999" stroke="#666666" points="77,-56 0,-56 0,-37 77,-37 77,-56"/>
<text text-anchor="middle" x="38.5" y="-44" font-family="Helvetica,sans-Serif" font-size="10.00">Tour::update</text>
</a>
</g>
</g>
<!-- Node2 -->
<g id="Node000002" class="node">
<title>Node2</title>
<g id="a_Node000002"><a xlink:href="classTour.html#ad3f382dc94747832a19bd7c8e27b2364" target="_top" xlink:title=" ">
<polygon fill="white" stroke="#666666" points="247,-130 113,-130 113,-111 247,-111 247,-130"/>
<text text-anchor="middle" x="180" y="-118" font-family="Helvetica,sans-Serif" font-size="10.00">Tour::creerProjectileVers</text>
</a>
</g>
</g>
<!-- Node1&#45;&gt;Node2 -->
<g id="edge1_Node000001_Node000002" class="edge">
<title>Node1&#45;&gt;Node2</title>
<g id="a_edge1_Node000001_Node000002"><a xlink:title=" ">
<path fill="none" stroke="#63b8ff" d="M57.45,-56.02C81.38,-68.72 123.96,-91.3 151.83,-106.09"/>
<polygon fill="#63b8ff" stroke="#63b8ff" points="150.2,-109.18 160.67,-110.78 153.48,-103 150.2,-109.18"/>
</a>
</g>
</g>
<!-- Node4 -->
<g id="Node000004" class="node">
<title>Node4</title>
<g id="a_Node000004"><a xlink:href="classEnnemi.html#ad58fd44efe2f7aec8c207c4bbdb86653" target="_top" xlink:title=" ">
<polygon fill="white" stroke="#666666" points="526.5,-56 444.5,-56 444.5,-37 526.5,-37 526.5,-56"/>
<text text-anchor="middle" x="485.5" y="-44" font-family="Helvetica,sans-Serif" font-size="10.00">Ennemi::getX</text>
</a>
</g>
</g>
<!-- Node1&#45;&gt;Node4 -->
<g id="edge3_Node000001_Node000004" class="edge">
<title>Node1&#45;&gt;Node4</title>
<g id="a_edge3_Node000001_Node000004"><a xlink:title=" ">
<path fill="none" stroke="#63b8ff" d="M77.06,-46.5C156.97,-46.5 343.92,-46.5 434.09,-46.5"/>
<polygon fill="#63b8ff" stroke="#63b8ff" points="434.34,-50 444.34,-46.5 434.34,-43 434.34,-50"/>
</a>
</g>
</g>
<!-- Node5 -->
<g id="Node000005" class="node">
<title>Node5</title>
<g id="a_Node000005"><a xlink:href="classEnnemi.html#a46f58fe1b5c47b668572d7259481db51" target="_top" xlink:title=" ">
<polygon fill="white" stroke="#666666" points="526,-19 445,-19 445,0 526,0 526,-19"/>
<text text-anchor="middle" x="485.5" y="-7" font-family="Helvetica,sans-Serif" font-size="10.00">Ennemi::getY</text>
</a>
</g>
</g>
<!-- Node1&#45;&gt;Node5 -->
<g id="edge4_Node000001_Node000005" class="edge">
<title>Node1&#45;&gt;Node5</title>
<g id="a_edge4_Node000001_Node000005"><a xlink:title=" ">
<path fill="none" stroke="#63b8ff" d="M77.06,-43.38C157.18,-36.72 344.86,-21.11 434.77,-13.63"/>
<polygon fill="#63b8ff" stroke="#63b8ff" points="435.3,-17.1 444.98,-12.79 434.72,-10.13 435.3,-17.1"/>
</a>
</g>
</g>
<!-- Node6 -->
<g id="Node000006" class="node">
<title>Node6</title>
<g id="a_Node000006"><a xlink:href="classTour.html#acc2bf31bcd0b441e7d8b9f9355002d5b" target="_top" xlink:title=" ">
<polygon fill="white" stroke="#666666" points="245,-75 115,-75 115,-56 245,-56 245,-75"/>
<text text-anchor="middle" x="180" y="-63" font-family="Helvetica,sans-Serif" font-size="10.00">Tour::trouverIndexCible</text>
</a>
</g>
</g>
<!-- Node1&#45;&gt;Node6 -->
<g id="edge5_Node000001_Node000006" class="edge">
<title>Node1&#45;&gt;Node6</title>
<g id="a_edge5_Node000001_Node000006"><a xlink:title=" ">
<path fill="none" stroke="#63b8ff" d="M77.25,-51.64C85.87,-52.82 95.33,-54.1 104.9,-55.41"/>
<polygon fill="#63b8ff" stroke="#63b8ff" points="104.5,-58.88 114.88,-56.77 105.44,-51.95 104.5,-58.88"/>
</a>
</g>
</g>
<!-- Node3 -->
<g id="Node000003" class="node">
<title>Node3</title>
<g id="a_Node000003"><a xlink:href="classEntite.html#a83249d985f7b8df907c2899cfb84ca0b" target="_top" xlink:title=" ">
<polygon fill="white" stroke="#666666" points="378,-149 302,-149 302,-130 378,-130 378,-149"/>
<text text-anchor="middle" x="340" y="-137" font-family="Helvetica,sans-Serif" font-size="10.00">Entite::getId</text>
</a>
</g>
</g>
<!-- Node2&#45;&gt;Node3 -->
<g id="edge2_Node000002_Node000003" class="edge">
<title>Node2&#45;&gt;Node3</title>
<g id="a_edge2_Node000002_Node000003"><a xlink:title=" ">
<path fill="none" stroke="#63b8ff" d="M247.09,-128.45C261.92,-130.23 277.36,-132.09 291.27,-133.76"/>
<polygon fill="#63b8ff" stroke="#63b8ff" points="291.22,-137.28 301.57,-135 292.06,-130.33 291.22,-137.28"/>
</a>
</g>
</g>
<!-- Node7 -->
<g id="Node000007" class="node">
<title>Node7</title>
<g id="a_Node000007"><a xlink:href="classTour.html#af773846f589321d8a7b32b9fed88bfe3" target="_top" xlink:title=" ">
<polygon fill="white" stroke="#666666" points="397,-75 283,-75 283,-56 397,-56 397,-75"/>
<text text-anchor="middle" x="340" y="-63" font-family="Helvetica,sans-Serif" font-size="10.00">Tour::estDansPortee</text>
</a>
</g>
</g>
<!-- Node6&#45;&gt;Node7 -->
<g id="edge6_Node000006_Node000007" class="edge">
<title>Node6&#45;&gt;Node7</title>
<g id="a_edge6_Node000006_Node000007"><a xlink:title=" ">
<path fill="none" stroke="#63b8ff" d="M245.26,-65.5C254.33,-65.5 263.66,-65.5 272.76,-65.5"/>
<polygon fill="#63b8ff" stroke="#63b8ff" points="272.91,-69 282.91,-65.5 272.91,-62 272.91,-69"/>
</a>
</g>
</g>
<!-- Node8 -->
<g id="Node000008" class="node">
<title>Node8</title>
<g id="a_Node000008"><a xlink:href="classTour.html#aa0bd22c568385d8e973c4f76f1472195" target="_top" xlink:title=" ">
<polygon fill="white" stroke="#666666" points="386.5,-112 293.5,-112 293.5,-93 386.5,-93 386.5,-112"/>
<text text-anchor="middle" x="340" y="-100" font-family="Helvetica,sans-Serif" font-size="10.00">Tour::peutCibler</text>
</a>
</g>
</g>
<!-- Node6&#45;&gt;Node8 -->
<g id="edge9_Node000006_Node000008" class="edge">
<title>Node6&#45;&gt;Node8</title>
<g id="a_edge9_Node000006_Node000008"><a xlink:title=" ">
<path fill="none" stroke="#63b8ff" d="M221.69,-75.03C241.97,-79.78 266.71,-85.57 288.22,-90.61"/>
<polygon fill="#63b8ff" stroke="#63b8ff" points="287.64,-94.07 298.17,-92.94 289.24,-87.25 287.64,-94.07"/>
</a>
</g>
</g>
<!-- Node7&#45;&gt;Node4 -->
<g id="edge7_Node000007_Node000004" class="edge">
<title>Node7&#45;&gt;Node4</title>
<g id="a_edge7_Node000007_Node000004"><a xlink:title=" ">
<path fill="none" stroke="#63b8ff" d="M397.3,-58.05C409.45,-56.44 422.22,-54.75 434.12,-53.17"/>
<polygon fill="#63b8ff" stroke="#63b8ff" points="434.86,-56.6 444.32,-51.82 433.95,-49.66 434.86,-56.6"/>
</a>
</g>
</g>
<!-- Node7&#45;&gt;Node5 -->
<g id="edge8_Node000007_Node000005" class="edge">
<title>Node7&#45;&gt;Node5</title>
<g id="a_edge8_Node000007_Node000005"><a xlink:title=" ">
<path fill="none" stroke="#63b8ff" d="M363.17,-55.94C381.72,-48.04 408.94,-36.67 433,-27.5 437.47,-25.8 442.17,-24.07 446.85,-22.39"/>
<polygon fill="#63b8ff" stroke="#63b8ff" points="448.08,-25.67 456.33,-19.03 445.74,-19.07 448.08,-25.67"/>
</a>
</g>
</g>
<!-- Node9 -->
<g id="Node000009" class="node">
<title>Node9</title>
<g id="a_Node000009"><a xlink:href="classEnnemi.html#a6d9610ad8a342cedd9ff2b6aa79b8778" target="_top" xlink:title=" ">
<polygon fill="white" stroke="#666666" points="538,-112 433,-112 433,-93 538,-93 538,-112"/>
<text text-anchor="middle" x="485.5" y="-100" font-family="Helvetica,sans-Serif" font-size="10.00">Ennemi::estVolant</text>
</a>
</g>
</g>
<!-- Node8&#45;&gt;Node9 -->
<g id="edge10_Node000008_Node000009" class="edge">
<title>Node8&#45;&gt;Node9</title>
<g id="a_edge10_Node000008_Node000009"><a xlink:title=" ">
<path fill="none" stroke="#63b8ff" d="M386.8,-102.5C398.27,-102.5 410.76,-102.5 422.86,-102.5"/>
<polygon fill="#63b8ff" stroke="#63b8ff" points="422.91,-106 432.91,-102.5 422.91,-99 422.91,-106"/>
</a>
</g>
</g>
</g>
</svg>
