<?xml version="1.0" encoding="UTF-8" standalone="no"?>
<!DOCTYPE svg PUBLIC "-//W3C//DTD SVG 1.1//EN"
 "http://www.w3.org/Graphics/SVG/1.1/DTD/svg11.dtd">
<!-- Generated by graphviz version 2.43.0 (0)
 -->
<!-- Title: GameInteractionHandler::ameliorerTourSelectionnee Pages: 1 -->
<svg width="909pt" height="289pt"
 viewBox="0.00 0.00 909.00 289.00" xmlns="http://www.w3.org/2000/svg" xmlns:xlink="http://www.w3.org/1999/xlink">
<g id="graph0" class="graph" transform="scale(1 1) rotate(0) translate(4 285)">
<title>GameInteractionHandler::ameliorerTourSelectionnee</title>
<!-- Node1 -->
<g id="Node000001" class="node">
<title>Node1</title>
<g id="a_Node000001"><a xlink:title=" ">
<polygon fill="#999999" stroke="#666666" points="153,-97.5 0,-97.5 0,-67.5 153,-67.5 153,-97.5"/>
<text text-anchor="start" x="8" y="-85.5" font-family="Helvetica,sans-Serif" font-size="10.00">GameInteractionHandler</text>
<text text-anchor="middle" x="76.5" y="-74.5" font-family="Helvetica,sans-Serif" font-size="10.00">::ameliorerTourSelectionnee</text>
</a>
</g>
</g>
<!-- Node2 -->
<g id="Node000002" class="node">
<title>Node2</title>
<g id="a_Node000002"><a xlink:href="classGameWorld.html#a3c42e3d9a5a232c0df4c3ed9d151d0af" target="_top" xlink:title=" ">
<polygon fill="white" stroke="#666666" points="355,-148 208,-148 208,-129 355,-129 355,-148"/>
<text text-anchor="middle" x="281.5" y="-136" font-family="Helvetica,sans-Serif" font-size="10.00">GameWorld::ameliorerTour</text>
</a>
</g>
</g>
<!-- Node1&#45;&gt;Node2 -->
<g id="edge1_Node000001_Node000002" class="edge">
<title>Node1&#45;&gt;Node2</title>
<g id="a_edge1_Node000001_Node000002"><a xlink:title=" ">
<path fill="none" stroke="#63b8ff" d="M131.9,-97.51C164.5,-106.5 205.44,-117.79 236.09,-126.25"/>
<polygon fill="#63b8ff" stroke="#63b8ff" points="235.49,-129.71 246.06,-129 237.35,-122.97 235.49,-129.71"/>
</a>
</g>
</g>
<!-- Node11 -->
<g id="Node000011" class="node">
<title>Node11</title>
<g id="a_Node000011"><a xlink:href="classGameInteractionHandler.html#a2c6f5cda0ff641c9e0c15807b71dd028" target="_top" xlink:title=" ">
<polygon fill="white" stroke="#666666" points="374,-76.5 189,-76.5 189,-46.5 374,-46.5 374,-76.5"/>
<text text-anchor="start" x="197" y="-64.5" font-family="Helvetica,sans-Serif" font-size="10.00">GameInteractionHandler</text>
<text text-anchor="middle" x="281.5" y="-53.5" font-family="Helvetica,sans-Serif" font-size="10.00">::getCoordonneesTourSelectionnee</text>
</a>
</g>
</g>
<!-- Node1&#45;&gt;Node11 -->
<g id="edge13_Node000001_Node000011" class="edge">
<title>Node1&#45;&gt;Node11</title>
<g id="a_edge13_Node000001_Node000011"><a xlink:title=" ">
<path fill="none" stroke="#63b8ff" d="M153.09,-74.68C161.43,-73.82 170.03,-72.93 178.63,-72.04"/>
<polygon fill="#63b8ff" stroke="#63b8ff" points="179.12,-75.51 188.71,-71 178.4,-68.54 179.12,-75.51"/>
</a>
</g>
</g>
<!-- Node3 -->
<g id="Node000003" class="node">
<title>Node3</title>
<g id="a_Node000003"><a xlink:href="classTour.html#ae504c090f236256bb423fab4fa07757c" target="_top" xlink:title="Améliore la tour si elle n&#39;a pas atteint son niveau maximum.">
<polygon fill="white" stroke="#666666" points="536,-243 446,-243 446,-224 536,-224 536,-243"/>
<text text-anchor="middle" x="491" y="-231" font-family="Helvetica,sans-Serif" font-size="10.00">Tour::ameliorer</text>
</a>
</g>
</g>
<!-- Node2&#45;&gt;Node3 -->
<g id="edge2_Node000002_Node000003" class="edge">
<title>Node2&#45;&gt;Node3</title>
<g id="a_edge2_Node000002_Node000003"><a xlink:title=" ">
<path fill="none" stroke="#63b8ff" d="M297.27,-148.13C320.49,-162.93 367.29,-191.45 410,-209.5 420.23,-213.82 431.49,-217.7 442.26,-221.02"/>
<polygon fill="#63b8ff" stroke="#63b8ff" points="441.38,-224.42 451.96,-223.91 443.38,-217.71 441.38,-224.42"/>
</a>
</g>
</g>
<!-- Node4 -->
<g id="Node000004" class="node">
<title>Node4</title>
<g id="a_Node000004"><a xlink:href="classTour.html#a994e6f727ad7ae61c951b13d431b0cb4" target="_top" xlink:title=" ">
<polygon fill="white" stroke="#666666" points="752,-281 608,-281 608,-262 752,-262 752,-281"/>
<text text-anchor="middle" x="680" y="-269" font-family="Helvetica,sans-Serif" font-size="10.00">Tour::getCoutAmelioration</text>
</a>
</g>
</g>
<!-- Node2&#45;&gt;Node4 -->
<g id="edge7_Node000002_Node000004" class="edge">
<title>Node2&#45;&gt;Node4</title>
<g id="a_edge7_Node000002_Node000004"><a xlink:title=" ">
<path fill="none" stroke="#63b8ff" d="M289.49,-148.12C306.84,-171.1 354.48,-229.02 410,-252.5 469.37,-277.6 542.69,-281.2 597.78,-279.16"/>
<polygon fill="#63b8ff" stroke="#63b8ff" points="598.01,-282.66 607.84,-278.72 597.7,-275.66 598.01,-282.66"/>
</a>
</g>
</g>
<!-- Node5 -->
<g id="Node000005" class="node">
<title>Node5</title>
<g id="a_Node000005"><a xlink:href="classTour.html#af7a0d99f48030e88643f798f2e2834fd" target="_top" xlink:title=" ">
<polygon fill="white" stroke="#666666" points="901,-243 788,-243 788,-224 901,-224 901,-243"/>
<text text-anchor="middle" x="844.5" y="-231" font-family="Helvetica,sans-Serif" font-size="10.00">Tour::peutAmeliorer</text>
</a>
</g>
</g>
<!-- Node2&#45;&gt;Node5 -->
<g id="edge11_Node000002_Node000005" class="edge">
<title>Node2&#45;&gt;Node5</title>
<g id="a_edge11_Node000002_Node000005"><a xlink:title=" ">
<path fill="none" stroke="#63b8ff" d="M310.03,-148.09C335.63,-156.68 374.99,-169.03 410,-176.5 538.94,-204.01 692.47,-220.43 777.86,-228.14"/>
<polygon fill="#63b8ff" stroke="#63b8ff" points="777.66,-231.64 787.93,-229.04 778.28,-224.67 777.66,-231.64"/>
</a>
</g>
</g>
<!-- Node6 -->
<g id="Node000006" class="node">
<title>Node6</title>
<g id="a_Node000006"><a xlink:href="classJoueur.html#ad18d1c7012dc9800669f44e5ec3e00d0" target="_top" xlink:title=" ">
<polygon fill="white" stroke="#666666" points="541.5,-167 440.5,-167 440.5,-148 541.5,-148 541.5,-167"/>
<text text-anchor="middle" x="491" y="-155" font-family="Helvetica,sans-Serif" font-size="10.00">Joueur::getArgent</text>
</a>
</g>
</g>
<!-- Node2&#45;&gt;Node6 -->
<g id="edge6_Node000002_Node000006" class="edge">
<title>Node2&#45;&gt;Node6</title>
<g id="a_edge6_Node000002_Node000006"><a xlink:title=" ">
<path fill="none" stroke="#63b8ff" d="M355.07,-145.15C379.61,-147.39 406.71,-149.87 430.14,-152.02"/>
<polygon fill="#63b8ff" stroke="#63b8ff" points="430.01,-155.52 440.29,-152.95 430.65,-148.55 430.01,-155.52"/>
</a>
</g>
</g>
<!-- Node7 -->
<g id="Node000007" class="node">
<title>Node7</title>
<g id="a_Node000007"><a xlink:href="classTour.html#a847a8518b604175469d8762aa900b3ac" target="_top" xlink:title=" ">
<polygon fill="white" stroke="#666666" points="537.5,-130 444.5,-130 444.5,-111 537.5,-111 537.5,-130"/>
<text text-anchor="middle" x="491" y="-118" font-family="Helvetica,sans-Serif" font-size="10.00">Tour::getNiveau</text>
</a>
</g>
</g>
<!-- Node2&#45;&gt;Node7 -->
<g id="edge8_Node000002_Node000007" class="edge">
<title>Node2&#45;&gt;Node7</title>
<g id="a_edge8_Node000002_Node000007"><a xlink:title=" ">
<path fill="none" stroke="#63b8ff" d="M355.07,-132.2C381.05,-129.95 409.9,-127.45 434.23,-125.34"/>
<polygon fill="#63b8ff" stroke="#63b8ff" points="434.7,-128.81 444.36,-124.46 434.09,-121.84 434.7,-128.81"/>
</a>
</g>
</g>
<!-- Node8 -->
<g id="Node000008" class="node">
<title>Node8</title>
<g id="a_Node000008"><a xlink:href="classJoueur.html#ac333503e9a8a5c2e0501641fe45a2c42" target="_top" xlink:title=" ">
<polygon fill="white" stroke="#666666" points="531.5,-93 450.5,-93 450.5,-74 531.5,-74 531.5,-93"/>
<text text-anchor="middle" x="491" y="-81" font-family="Helvetica,sans-Serif" font-size="10.00">Joueur::payer</text>
</a>
</g>
</g>
<!-- Node2&#45;&gt;Node8 -->
<g id="edge9_Node000002_Node000008" class="edge">
<title>Node2&#45;&gt;Node8</title>
<g id="a_edge9_Node000002_Node000008"><a xlink:title=" ">
<path fill="none" stroke="#63b8ff" d="M313.27,-129C339.01,-121.19 376.74,-110.06 410,-101.5 419.82,-98.97 430.38,-96.46 440.49,-94.14"/>
<polygon fill="#63b8ff" stroke="#63b8ff" points="441.43,-97.52 450.42,-91.9 439.89,-90.69 441.43,-97.52"/>
</a>
</g>
</g>
<!-- Node10 -->
<g id="Node000010" class="node">
<title>Node10</title>
<g id="a_Node000010"><a xlink:href="classGameWorld.html#a032d027d5731484705128abc4f06c60e" target="_top" xlink:title=" ">
<polygon fill="white" stroke="#666666" points="572,-56 410,-56 410,-37 572,-37 572,-56"/>
<text text-anchor="middle" x="491" y="-44" font-family="Helvetica,sans-Serif" font-size="10.00">GameWorld::trouverIndexTour</text>
</a>
</g>
</g>
<!-- Node2&#45;&gt;Node10 -->
<g id="edge12_Node000002_Node000010" class="edge">
<title>Node2&#45;&gt;Node10</title>
<g id="a_edge12_Node000002_Node000010"><a xlink:title=" ">
<path fill="none" stroke="#63b8ff" d="M299.04,-128.94C317.37,-118.34 347.81,-100.72 374,-85.5 390.01,-76.19 392.76,-71.28 410,-64.5 415.43,-62.36 421.18,-60.45 426.99,-58.74"/>
<polygon fill="#63b8ff" stroke="#63b8ff" points="428.08,-62.07 436.81,-56.06 426.24,-55.32 428.08,-62.07"/>
</a>
</g>
</g>
<!-- Node3&#45;&gt;Node4 -->
<g id="edge3_Node000003_Node000004" class="edge">
<title>Node3&#45;&gt;Node4</title>
<g id="a_edge3_Node000003_Node000004"><a xlink:title=" ">
<path fill="none" stroke="#63b8ff" d="M536.32,-242.51C562,-247.72 594.6,-254.35 622.16,-259.95"/>
<polygon fill="#63b8ff" stroke="#63b8ff" points="621.57,-263.4 632.06,-261.96 622.96,-256.54 621.57,-263.4"/>
</a>
</g>
</g>
<!-- Node3&#45;&gt;Node5 -->
<g id="edge5_Node000003_Node000005" class="edge">
<title>Node3&#45;&gt;Node5</title>
<g id="a_edge5_Node000003_Node000005"><a xlink:title=" ">
<path fill="none" stroke="#63b8ff" d="M536.16,-233.5C597.06,-233.5 707.27,-233.5 777.84,-233.5"/>
<polygon fill="#63b8ff" stroke="#63b8ff" points="777.95,-237 787.95,-233.5 777.95,-230 777.95,-237"/>
</a>
</g>
</g>
<!-- Node4&#45;&gt;Node5 -->
<g id="edge4_Node000004_Node000005" class="edge">
<title>Node4&#45;&gt;Node5</title>
<g id="a_edge4_Node000004_Node000005"><a xlink:title=" ">
<path fill="none" stroke="#63b8ff" d="M722.01,-261.91C743.55,-256.87 770.13,-250.66 792.94,-245.32"/>
<polygon fill="#63b8ff" stroke="#63b8ff" points="793.85,-248.71 802.79,-243.02 792.25,-241.89 793.85,-248.71"/>
</a>
</g>
</g>
<!-- Node9 -->
<g id="Node000009" class="node">
<title>Node9</title>
<g id="a_Node000009"><a xlink:href="classJoueur.html#ae6be60af6eb59da598453e39d3e6d5a7" target="_top" xlink:title=" ">
<polygon fill="white" stroke="#666666" points="731,-93 629,-93 629,-74 731,-74 731,-93"/>
<text text-anchor="middle" x="680" y="-81" font-family="Helvetica,sans-Serif" font-size="10.00">Joueur::peutPayer</text>
</a>
</g>
</g>
<!-- Node8&#45;&gt;Node9 -->
<g id="edge10_Node000008_Node000009" class="edge">
<title>Node8&#45;&gt;Node9</title>
<g id="a_edge10_Node000008_Node000009"><a xlink:title=" ">
<path fill="none" stroke="#63b8ff" d="M531.66,-83.5C556.87,-83.5 589.99,-83.5 618.45,-83.5"/>
<polygon fill="#63b8ff" stroke="#63b8ff" points="618.7,-87 628.7,-83.5 618.7,-80 618.7,-87"/>
</a>
</g>
</g>
<!-- Node12 -->
<g id="Node000012" class="node">
<title>Node12</title>
<g id="a_Node000012"><a xlink:href="classGameWorld.html#a79cfd7b7bb41accd8608cd1096da41fc" target="_top" xlink:title=" ">
<polygon fill="white" stroke="#666666" points="543,-19 439,-19 439,0 543,0 543,-19"/>
<text text-anchor="middle" x="491" y="-7" font-family="Helvetica,sans-Serif" font-size="10.00">GameWorld::tours</text>
</a>
</g>
</g>
<!-- Node11&#45;&gt;Node12 -->
<g id="edge14_Node000011_Node000012" class="edge">
<title>Node11&#45;&gt;Node12</title>
<g id="a_edge14_Node000011_Node000012"><a xlink:title=" ">
<path fill="none" stroke="#63b8ff" d="M336.98,-46.47C359.53,-40.38 385.97,-33.4 410,-27.5 418.44,-25.43 427.4,-23.32 436.15,-21.31"/>
<polygon fill="#63b8ff" stroke="#63b8ff" points="436.94,-24.72 445.91,-19.09 435.39,-17.9 436.94,-24.72"/>
</a>
</g>
</g>
</g>
</svg>
