<?xml version="1.0" encoding="UTF-8" standalone="no"?>
<!DOCTYPE svg PUBLIC "-//W3C//DTD SVG 1.1//EN"
 "http://www.w3.org/Graphics/SVG/1.1/DTD/svg11.dtd">
<!-- Generated by graphviz version 2.43.0 (0)
 -->
<!-- Title: GameInteractionHandler::terminerDragTour Pages: 1 -->
<svg width="639pt" height="38pt"
 viewBox="0.00 0.00 639.00 38.00" xmlns="http://www.w3.org/2000/svg" xmlns:xlink="http://www.w3.org/1999/xlink">
<g id="graph0" class="graph" transform="scale(1 1) rotate(0) translate(4 34)">
<title>GameInteractionHandler::terminerDragTour</title>
<!-- Node1 -->
<g id="Node000001" class="node">
<title>Node1</title>
<g id="a_Node000001"><a xlink:title=" ">
<polygon fill="#999999" stroke="#666666" points="631,-30 494,-30 494,0 631,0 631,-30"/>
<text text-anchor="start" x="502" y="-18" font-family="Helvetica,sans-Serif" font-size="10.00">GameInteractionHandler</text>
<text text-anchor="middle" x="562.5" y="-7" font-family="Helvetica,sans-Serif" font-size="10.00">::terminerDragTour</text>
</a>
</g>
</g>
<!-- Node2 -->
<g id="Node000002" class="node">
<title>Node2</title>
<g id="a_Node000002"><a xlink:href="classGameInteractionHandler.html#a41e39c38d892a4f72a796a5d0e311ac6" target="_top" xlink:title=" ">
<polygon fill="white" stroke="#666666" points="458,-30 321,-30 321,0 458,0 458,-30"/>
<text text-anchor="start" x="329" y="-18" font-family="Helvetica,sans-Serif" font-size="10.00">GameInteractionHandler</text>
<text text-anchor="middle" x="389.5" y="-7" font-family="Helvetica,sans-Serif" font-size="10.00">::traiterEntrees</text>
</a>
</g>
</g>
<!-- Node1&#45;&gt;Node2 -->
<g id="edge1_Node000001_Node000002" class="edge">
<title>Node1&#45;&gt;Node2</title>
<g id="a_edge1_Node000001_Node000002"><a xlink:title=" ">
<path fill="none" stroke="#63b8ff" d="M483.9,-15C475.31,-15 466.61,-15 458.15,-15"/>
<polygon fill="#63b8ff" stroke="#63b8ff" points="483.92,-18.5 493.92,-15 483.92,-11.5 483.92,-18.5"/>
</a>
</g>
</g>
<!-- Node3 -->
<g id="Node000003" class="node">
<title>Node3</title>
<g id="a_Node000003"><a xlink:href="classJeu.html#af7c3c31fab677367d100dabc3d0dbec9" target="_top" xlink:title=" ">
<polygon fill="white" stroke="#666666" points="285,-24.5 181,-24.5 181,-5.5 285,-5.5 285,-24.5"/>
<text text-anchor="middle" x="233" y="-12.5" font-family="Helvetica,sans-Serif" font-size="10.00">Jeu::traiterEntrees</text>
</a>
</g>
</g>
<!-- Node2&#45;&gt;Node3 -->
<g id="edge2_Node000002_Node000003" class="edge">
<title>Node2&#45;&gt;Node3</title>
<g id="a_edge2_Node000002_Node000003"><a xlink:title=" ">
<path fill="none" stroke="#63b8ff" d="M310.7,-15C302.13,-15 293.58,-15 285.45,-15"/>
<polygon fill="#63b8ff" stroke="#63b8ff" points="310.73,-18.5 320.73,-15 310.73,-11.5 310.73,-18.5"/>
</a>
</g>
</g>
<!-- Node4 -->
<g id="Node000004" class="node">
<title>Node4</title>
<g id="a_Node000004"><a xlink:href="classJeu.html#ae5227e7a3d506e3511bd76201f4c7aad" target="_top" xlink:title=" ">
<polygon fill="white" stroke="#666666" points="145,-24.5 77,-24.5 77,-5.5 145,-5.5 145,-24.5"/>
<text text-anchor="middle" x="111" y="-12.5" font-family="Helvetica,sans-Serif" font-size="10.00">Jeu::lancer</text>
</a>
</g>
</g>
<!-- Node3&#45;&gt;Node4 -->
<g id="edge3_Node000003_Node000004" class="edge">
<title>Node3&#45;&gt;Node4</title>
<g id="a_edge3_Node000003_Node000004"><a xlink:title=" ">
<path fill="none" stroke="#63b8ff" d="M170.48,-15C161.7,-15 152.96,-15 145.02,-15"/>
<polygon fill="#63b8ff" stroke="#63b8ff" points="170.76,-18.5 180.76,-15 170.76,-11.5 170.76,-18.5"/>
</a>
</g>
</g>
<!-- Node5 -->
<g id="Node000005" class="node">
<title>Node5</title>
<g id="a_Node000005"><a xlink:href="main_8cpp.html#ae66f6b31b5ad750f1fe042a706a4e3d4" target="_top" xlink:title=" ">
<polygon fill="white" stroke="#666666" points="41,-24.5 0,-24.5 0,-5.5 41,-5.5 41,-24.5"/>
<text text-anchor="middle" x="20.5" y="-12.5" font-family="Helvetica,sans-Serif" font-size="10.00">main</text>
</a>
</g>
</g>
<!-- Node4&#45;&gt;Node5 -->
<g id="edge4_Node000004_Node000005" class="edge">
<title>Node4&#45;&gt;Node5</title>
<g id="a_edge4_Node000004_Node000005"><a xlink:title=" ">
<path fill="none" stroke="#63b8ff" d="M66.51,-15C57.66,-15 48.77,-15 41.25,-15"/>
<polygon fill="#63b8ff" stroke="#63b8ff" points="66.79,-18.5 76.79,-15 66.79,-11.5 66.79,-18.5"/>
</a>
</g>
</g>
</g>
</svg>
