<?xml version="1.0" encoding="UTF-8" standalone="no"?>
<!DOCTYPE svg PUBLIC "-//W3C//DTD SVG 1.1//EN"
 "http://www.w3.org/Graphics/SVG/1.1/DTD/svg11.dtd">
<!-- Generated by graphviz version 2.43.0 (0)
 -->
<!-- Title: GameRenderer::trouverIndexTour Pages: 1 -->
<svg width="886pt" height="76pt"
 viewBox="0.00 0.00 886.00 75.50" xmlns="http://www.w3.org/2000/svg" xmlns:xlink="http://www.w3.org/1999/xlink">
<g id="graph0" class="graph" transform="scale(1 1) rotate(0) translate(4 71.5)">
<title>GameRenderer::trouverIndexTour</title>
<!-- Node1 -->
<g id="Node000001" class="node">
<title>Node1</title>
<g id="a_Node000001"><a xlink:title=" ">
<polygon fill="#999999" stroke="#666666" points="878,-45.5 699,-45.5 699,-26.5 878,-26.5 878,-45.5"/>
<text text-anchor="middle" x="788.5" y="-33.5" font-family="Helvetica,sans-Serif" font-size="10.00">GameRenderer::trouverIndexTour</text>
</a>
</g>
</g>
<!-- Node2 -->
<g id="Node000002" class="node">
<title>Node2</title>
<g id="a_Node000002"><a xlink:href="classGameRenderer.html#a2b6cc7eb933b2d3399cfece6b5e36f05" target="_top" xlink:title=" ">
<polygon fill="white" stroke="#666666" points="663,-67.5 469,-67.5 469,-48.5 663,-48.5 663,-67.5"/>
<text text-anchor="middle" x="566" y="-55.5" font-family="Helvetica,sans-Serif" font-size="10.00">GameRenderer::dessinerApercuDrag</text>
</a>
</g>
</g>
<!-- Node1&#45;&gt;Node2 -->
<g id="edge1_Node000001_Node000002" class="edge">
<title>Node1&#45;&gt;Node2</title>
<g id="a_edge1_Node000001_Node000002"><a xlink:title=" ">
<path fill="none" stroke="#63b8ff" d="M688.6,-45.87C679.89,-46.74 671.08,-47.62 662.4,-48.48"/>
<polygon fill="#63b8ff" stroke="#63b8ff" points="689.16,-49.33 698.77,-44.85 688.47,-42.36 689.16,-49.33"/>
</a>
</g>
</g>
<!-- Node7 -->
<g id="Node000007" class="node">
<title>Node7</title>
<g id="a_Node000007"><a xlink:href="classGameRenderer.html#aa858b2e517db91eb5242152feda7f561" target="_top" xlink:title=" ">
<polygon fill="white" stroke="#666666" points="650.5,-30 481.5,-30 481.5,0 650.5,0 650.5,-30"/>
<text text-anchor="start" x="489.5" y="-18" font-family="Helvetica,sans-Serif" font-size="10.00">GameRenderer::dessinerPortee</text>
<text text-anchor="middle" x="566" y="-7" font-family="Helvetica,sans-Serif" font-size="10.00">AuCurseur</text>
</a>
</g>
</g>
<!-- Node1&#45;&gt;Node7 -->
<g id="edge6_Node000001_Node000007" class="edge">
<title>Node1&#45;&gt;Node7</title>
<g id="a_edge6_Node000001_Node000007"><a xlink:title=" ">
<path fill="none" stroke="#63b8ff" d="M688.63,-26.58C675.91,-25.37 662.99,-24.14 650.55,-22.96"/>
<polygon fill="#63b8ff" stroke="#63b8ff" points="688.48,-30.09 698.77,-27.55 689.14,-23.12 688.48,-30.09"/>
</a>
</g>
</g>
<!-- Node3 -->
<g id="Node000003" class="node">
<title>Node3</title>
<g id="a_Node000003"><a xlink:href="classGameRenderer.html#a22a89ca662c181cef84d69fce2b9d72b" target="_top" xlink:title=" ">
<polygon fill="white" stroke="#666666" points="433,-45.5 296,-45.5 296,-26.5 433,-26.5 433,-45.5"/>
<text text-anchor="middle" x="364.5" y="-33.5" font-family="Helvetica,sans-Serif" font-size="10.00">GameRenderer::dessiner</text>
</a>
</g>
</g>
<!-- Node2&#45;&gt;Node3 -->
<g id="edge2_Node000002_Node000003" class="edge">
<title>Node2&#45;&gt;Node3</title>
<g id="a_edge2_Node000002_Node000003"><a xlink:title=" ">
<path fill="none" stroke="#63b8ff" d="M468.59,-47.37C456.57,-46.04 444.48,-44.71 433.03,-43.45"/>
<polygon fill="#63b8ff" stroke="#63b8ff" points="468.33,-50.86 478.66,-48.48 469.1,-43.9 468.33,-50.86"/>
</a>
</g>
</g>
<!-- Node4 -->
<g id="Node000004" class="node">
<title>Node4</title>
<g id="a_Node000004"><a xlink:href="classJeu.html#a97e016653e9f3df8735a322627c16fc0" target="_top" xlink:title=" ">
<polygon fill="white" stroke="#666666" points="260,-45.5 181,-45.5 181,-26.5 260,-26.5 260,-45.5"/>
<text text-anchor="middle" x="220.5" y="-33.5" font-family="Helvetica,sans-Serif" font-size="10.00">Jeu::dessiner</text>
</a>
</g>
</g>
<!-- Node3&#45;&gt;Node4 -->
<g id="edge3_Node000003_Node000004" class="edge">
<title>Node3&#45;&gt;Node4</title>
<g id="a_edge3_Node000003_Node000004"><a xlink:title=" ">
<path fill="none" stroke="#63b8ff" d="M285.75,-36C276.85,-36 268.09,-36 260.04,-36"/>
<polygon fill="#63b8ff" stroke="#63b8ff" points="285.83,-39.5 295.83,-36 285.83,-32.5 285.83,-39.5"/>
</a>
</g>
</g>
<!-- Node5 -->
<g id="Node000005" class="node">
<title>Node5</title>
<g id="a_Node000005"><a xlink:href="classJeu.html#ae5227e7a3d506e3511bd76201f4c7aad" target="_top" xlink:title=" ">
<polygon fill="white" stroke="#666666" points="145,-45.5 77,-45.5 77,-26.5 145,-26.5 145,-45.5"/>
<text text-anchor="middle" x="111" y="-33.5" font-family="Helvetica,sans-Serif" font-size="10.00">Jeu::lancer</text>
</a>
</g>
</g>
<!-- Node4&#45;&gt;Node5 -->
<g id="edge4_Node000004_Node000005" class="edge">
<title>Node4&#45;&gt;Node5</title>
<g id="a_edge4_Node000004_Node000005"><a xlink:title=" ">
<path fill="none" stroke="#63b8ff" d="M170.94,-36C162.25,-36 153.39,-36 145.26,-36"/>
<polygon fill="#63b8ff" stroke="#63b8ff" points="170.99,-39.5 180.99,-36 170.99,-32.5 170.99,-39.5"/>
</a>
</g>
</g>
<!-- Node6 -->
<g id="Node000006" class="node">
<title>Node6</title>
<g id="a_Node000006"><a xlink:href="main_8cpp.html#ae66f6b31b5ad750f1fe042a706a4e3d4" target="_top" xlink:title=" ">
<polygon fill="white" stroke="#666666" points="41,-45.5 0,-45.5 0,-26.5 41,-26.5 41,-45.5"/>
<text text-anchor="middle" x="20.5" y="-33.5" font-family="Helvetica,sans-Serif" font-size="10.00">main</text>
</a>
</g>
</g>
<!-- Node5&#45;&gt;Node6 -->
<g id="edge5_Node000005_Node000006" class="edge">
<title>Node5&#45;&gt;Node6</title>
<g id="a_edge5_Node000005_Node000006"><a xlink:title=" ">
<path fill="none" stroke="#63b8ff" d="M66.51,-36C57.66,-36 48.77,-36 41.25,-36"/>
<polygon fill="#63b8ff" stroke="#63b8ff" points="66.79,-39.5 76.79,-36 66.79,-32.5 66.79,-39.5"/>
</a>
</g>
</g>
<!-- Node7&#45;&gt;Node3 -->
<g id="edge7_Node000007_Node000003" class="edge">
<title>Node7&#45;&gt;Node3</title>
<g id="a_edge7_Node000007_Node000003"><a xlink:title=" ">
<path fill="none" stroke="#63b8ff" d="M471.08,-24.89C458.33,-26.23 445.46,-27.58 433.29,-28.86"/>
<polygon fill="#63b8ff" stroke="#63b8ff" points="471.68,-28.34 481.26,-23.81 470.95,-21.38 471.68,-28.34"/>
</a>
</g>
</g>
</g>
</svg>
