<?xml version="1.0" encoding="UTF-8" standalone="no"?>
<!DOCTYPE svg PUBLIC "-//W3C//DTD SVG 1.1//EN"
 "http://www.w3.org/Graphics/SVG/1.1/DTD/svg11.dtd">
<!-- Generated by graphviz version 2.43.0 (0)
 -->
<!-- Title: GameWorld::tours Pages: 1 -->
<svg width="611pt" height="124pt"
 viewBox="0.00 0.00 611.00 123.50" xmlns="http://www.w3.org/2000/svg" xmlns:xlink="http://www.w3.org/1999/xlink">
<g id="graph0" class="graph" transform="scale(1 1) rotate(0) translate(4 119.5)">
<title>GameWorld::tours</title>
<!-- Node1 -->
<g id="Node000001" class="node">
<title>Node1</title>
<g id="a_Node000001"><a xlink:title=" ">
<polygon fill="#999999" stroke="#666666" points="603,-93.5 499,-93.5 499,-74.5 603,-74.5 603,-93.5"/>
<text text-anchor="middle" x="551" y="-81.5" font-family="Helvetica,sans-Serif" font-size="10.00">GameWorld::tours</text>
</a>
</g>
</g>
<!-- Node2 -->
<g id="Node000002" class="node">
<title>Node2</title>
<g id="a_Node000002"><a xlink:href="classJeu.html#a97e016653e9f3df8735a322627c16fc0" target="_top" xlink:title=" ">
<polygon fill="white" stroke="#666666" points="410,-115.5 331,-115.5 331,-96.5 410,-96.5 410,-115.5"/>
<text text-anchor="middle" x="370.5" y="-103.5" font-family="Helvetica,sans-Serif" font-size="10.00">Jeu::dessiner</text>
</a>
</g>
</g>
<!-- Node1&#45;&gt;Node2 -->
<g id="edge1_Node000001_Node000002" class="edge">
<title>Node1&#45;&gt;Node2</title>
<g id="a_edge1_Node000001_Node000002"><a xlink:title=" ">
<path fill="none" stroke="#63b8ff" d="M488.69,-91.56C462.66,-94.77 433.09,-98.41 410.17,-101.23"/>
<polygon fill="#63b8ff" stroke="#63b8ff" points="489.35,-95 498.85,-90.3 488.5,-88.05 489.35,-95"/>
</a>
</g>
</g>
<!-- Node5 -->
<g id="Node000005" class="node">
<title>Node5</title>
<g id="a_Node000005"><a xlink:href="classGameInteractionHandler.html#a2c6f5cda0ff641c9e0c15807b71dd028" target="_top" xlink:title=" ">
<polygon fill="white" stroke="#666666" points="463,-78 278,-78 278,-48 463,-48 463,-78"/>
<text text-anchor="start" x="286" y="-66" font-family="Helvetica,sans-Serif" font-size="10.00">GameInteractionHandler</text>
<text text-anchor="middle" x="370.5" y="-55" font-family="Helvetica,sans-Serif" font-size="10.00">::getCoordonneesTourSelectionnee</text>
</a>
</g>
</g>
<!-- Node1&#45;&gt;Node5 -->
<g id="edge4_Node000001_Node000005" class="edge">
<title>Node1&#45;&gt;Node5</title>
<g id="a_edge4_Node000001_Node000005"><a xlink:title=" ">
<path fill="none" stroke="#63b8ff" d="M488.89,-76.81C480.55,-75.83 471.85,-74.81 463.12,-73.78"/>
<polygon fill="#63b8ff" stroke="#63b8ff" points="488.51,-80.29 498.85,-77.98 489.33,-73.34 488.51,-80.29"/>
</a>
</g>
</g>
<!-- Node3 -->
<g id="Node000003" class="node">
<title>Node3</title>
<g id="a_Node000003"><a xlink:href="classJeu.html#ae5227e7a3d506e3511bd76201f4c7aad" target="_top" xlink:title=" ">
<polygon fill="white" stroke="#666666" points="199.5,-115.5 131.5,-115.5 131.5,-96.5 199.5,-96.5 199.5,-115.5"/>
<text text-anchor="middle" x="165.5" y="-103.5" font-family="Helvetica,sans-Serif" font-size="10.00">Jeu::lancer</text>
</a>
</g>
</g>
<!-- Node2&#45;&gt;Node3 -->
<g id="edge2_Node000002_Node000003" class="edge">
<title>Node2&#45;&gt;Node3</title>
<g id="a_edge2_Node000002_Node000003"><a xlink:title=" ">
<path fill="none" stroke="#63b8ff" d="M320.65,-106C283.19,-106 232.49,-106 199.64,-106"/>
<polygon fill="#63b8ff" stroke="#63b8ff" points="320.84,-109.5 330.84,-106 320.84,-102.5 320.84,-109.5"/>
</a>
</g>
</g>
<!-- Node4 -->
<g id="Node000004" class="node">
<title>Node4</title>
<g id="a_Node000004"><a xlink:href="main_8cpp.html#ae66f6b31b5ad750f1fe042a706a4e3d4" target="_top" xlink:title=" ">
<polygon fill="white" stroke="#666666" points="47,-115.5 6,-115.5 6,-96.5 47,-96.5 47,-115.5"/>
<text text-anchor="middle" x="26.5" y="-103.5" font-family="Helvetica,sans-Serif" font-size="10.00">main</text>
</a>
</g>
</g>
<!-- Node3&#45;&gt;Node4 -->
<g id="edge3_Node000003_Node000004" class="edge">
<title>Node3&#45;&gt;Node4</title>
<g id="a_edge3_Node000003_Node000004"><a xlink:title=" ">
<path fill="none" stroke="#63b8ff" d="M121.07,-106C96.3,-106 66.44,-106 47.23,-106"/>
<polygon fill="#63b8ff" stroke="#63b8ff" points="121.34,-109.5 131.34,-106 121.34,-102.5 121.34,-109.5"/>
</a>
</g>
</g>
<!-- Node6 -->
<g id="Node000006" class="node">
<title>Node6</title>
<g id="a_Node000006"><a xlink:href="classGameInteractionHandler.html#a6e41f34f3ce117a218dc2ca184ba4c6a" target="_top" xlink:title=" ">
<polygon fill="white" stroke="#666666" points="242,-78 89,-78 89,-48 242,-48 242,-78"/>
<text text-anchor="start" x="97" y="-66" font-family="Helvetica,sans-Serif" font-size="10.00">GameInteractionHandler</text>
<text text-anchor="middle" x="165.5" y="-55" font-family="Helvetica,sans-Serif" font-size="10.00">::ameliorerTourSelectionnee</text>
</a>
</g>
</g>
<!-- Node5&#45;&gt;Node6 -->
<g id="edge5_Node000005_Node000006" class="edge">
<title>Node5&#45;&gt;Node6</title>
<g id="a_edge5_Node000005_Node000006"><a xlink:title=" ">
<path fill="none" stroke="#63b8ff" d="M267.75,-63C259.18,-63 250.62,-63 242.3,-63"/>
<polygon fill="#63b8ff" stroke="#63b8ff" points="267.8,-66.5 277.8,-63 267.8,-59.5 267.8,-66.5"/>
</a>
</g>
</g>
<!-- Node8 -->
<g id="Node000008" class="node">
<title>Node8</title>
<g id="a_Node000008"><a xlink:href="classGameInteractionHandler.html#aad3064ad5b1000a06617a4c6a3d91951" target="_top" xlink:title=" ">
<polygon fill="white" stroke="#666666" points="235.5,-30 95.5,-30 95.5,0 235.5,0 235.5,-30"/>
<text text-anchor="start" x="103.5" y="-18" font-family="Helvetica,sans-Serif" font-size="10.00">GameInteractionHandler</text>
<text text-anchor="middle" x="165.5" y="-7" font-family="Helvetica,sans-Serif" font-size="10.00">::vendreTourSelectionnee</text>
</a>
</g>
</g>
<!-- Node5&#45;&gt;Node8 -->
<g id="edge7_Node000005_Node000008" class="edge">
<title>Node5&#45;&gt;Node8</title>
<g id="a_edge7_Node000005_Node000008"><a xlink:title=" ">
<path fill="none" stroke="#63b8ff" d="M296.03,-45.63C274.39,-40.51 250.9,-34.96 229.95,-30"/>
<polygon fill="#63b8ff" stroke="#63b8ff" points="295.29,-49.05 305.83,-47.94 296.9,-42.24 295.29,-49.05"/>
</a>
</g>
</g>
<!-- Node7 -->
<g id="Node000007" class="node">
<title>Node7</title>
<g id="a_Node000007"><a xlink:href="classJeu.html#acc5795ee00edf75516d3dfe65be3e6d6" target="_top" xlink:title=" ">
<polygon fill="white" stroke="#666666" points="53,-48.5 0,-48.5 0,-29.5 53,-29.5 53,-48.5"/>
<text text-anchor="middle" x="26.5" y="-36.5" font-family="Helvetica,sans-Serif" font-size="10.00">Jeu::Jeu</text>
</a>
</g>
</g>
<!-- Node6&#45;&gt;Node7 -->
<g id="edge6_Node000006_Node000007" class="edge">
<title>Node6&#45;&gt;Node7</title>
<g id="a_edge6_Node000006_Node000007"><a xlink:title=" ">
<path fill="none" stroke="#63b8ff" d="M78.93,-48.01C69.6,-46.38 60.72,-44.82 53.05,-43.48"/>
<polygon fill="#63b8ff" stroke="#63b8ff" points="78.33,-51.46 88.79,-49.74 79.54,-44.56 78.33,-51.46"/>
</a>
</g>
</g>
<!-- Node8&#45;&gt;Node7 -->
<g id="edge8_Node000008_Node000007" class="edge">
<title>Node8&#45;&gt;Node7</title>
<g id="a_edge8_Node000008_Node000007"><a xlink:title=" ">
<path fill="none" stroke="#63b8ff" d="M85.04,-28.92C73.58,-30.93 62.53,-32.86 53.23,-34.49"/>
<polygon fill="#63b8ff" stroke="#63b8ff" points="85.95,-32.31 95.2,-27.14 84.74,-25.42 85.95,-32.31"/>
</a>
</g>
</g>
</g>
</svg>
