<?xml version="1.0" encoding="UTF-8" standalone="no"?>
<!DOCTYPE svg PUBLIC "-//W3C//DTD SVG 1.1//EN"
 "http://www.w3.org/Graphics/SVG/1.1/DTD/svg11.dtd">
<!-- Generated by graphviz version 2.43.0 (0)
 -->
<!-- Title: GameInteractionHandler::essayerAjouterTour Pages: 1 -->
<svg width="661pt" height="175pt"
 viewBox="0.00 0.00 661.00 175.00" xmlns="http://www.w3.org/2000/svg" xmlns:xlink="http://www.w3.org/1999/xlink">
<g id="graph0" class="graph" transform="scale(1 1) rotate(0) translate(4 171)">
<title>GameInteractionHandler::essayerAjouterTour</title>
<!-- Node1 -->
<g id="Node000001" class="node">
<title>Node1</title>
<g id="a_Node000001"><a xlink:title=" ">
<polygon fill="#999999" stroke="#666666" points="137,-98.5 0,-98.5 0,-68.5 137,-68.5 137,-98.5"/>
<text text-anchor="start" x="8" y="-86.5" font-family="Helvetica,sans-Serif" font-size="10.00">GameInteractionHandler</text>
<text text-anchor="middle" x="68.5" y="-75.5" font-family="Helvetica,sans-Serif" font-size="10.00">::essayerAjouterTour</text>
</a>
</g>
</g>
<!-- Node2 -->
<g id="Node000002" class="node">
<title>Node2</title>
<g id="a_Node000002"><a xlink:href="classGameWorld.html#aacb8f92e84b9091fbaea01e18a53c6d4" target="_top" xlink:title=" ">
<polygon fill="white" stroke="#666666" points="303,-93 173,-93 173,-74 303,-74 303,-93"/>
<text text-anchor="middle" x="238" y="-81" font-family="Helvetica,sans-Serif" font-size="10.00">GameWorld::placerTour</text>
</a>
</g>
</g>
<!-- Node1&#45;&gt;Node2 -->
<g id="edge1_Node000001_Node000002" class="edge">
<title>Node1&#45;&gt;Node2</title>
<g id="a_edge1_Node000001_Node000002"><a xlink:title=" ">
<path fill="none" stroke="#63b8ff" d="M137.15,-83.5C145.54,-83.5 154.15,-83.5 162.64,-83.5"/>
<polygon fill="#63b8ff" stroke="#63b8ff" points="162.9,-87 172.9,-83.5 162.9,-80 162.9,-87"/>
</a>
</g>
</g>
<!-- Node3 -->
<g id="Node000003" class="node">
<title>Node3</title>
<g id="a_Node000003"><a xlink:href="classTourFactory.html#a1d20f371046f0ac95cc40d71599beecb" target="_top" xlink:title=" ">
<polygon fill="white" stroke="#666666" points="476,-167 354,-167 354,-148 476,-148 476,-167"/>
<text text-anchor="middle" x="415" y="-155" font-family="Helvetica,sans-Serif" font-size="10.00">TourFactory::creerTour</text>
</a>
</g>
</g>
<!-- Node2&#45;&gt;Node3 -->
<g id="edge2_Node000002_Node000003" class="edge">
<title>Node2&#45;&gt;Node3</title>
<g id="a_edge2_Node000002_Node000003"><a xlink:title=" ">
<path fill="none" stroke="#63b8ff" d="M253.28,-93.17C272.15,-105.55 306.76,-126.88 339,-139.5 344.35,-141.59 350.02,-143.49 355.74,-145.2"/>
<polygon fill="#63b8ff" stroke="#63b8ff" points="354.81,-148.58 365.38,-147.9 356.7,-141.83 354.81,-148.58"/>
</a>
</g>
</g>
<!-- Node5 -->
<g id="Node000005" class="node">
<title>Node5</title>
<g id="a_Node000005"><a xlink:href="classCarte.html#a7e172109f8790d18ca121c22a652a70c" target="_top" xlink:title=" ">
<polygon fill="white" stroke="#666666" points="479,-130 351,-130 351,-111 479,-111 479,-130"/>
<text text-anchor="middle" x="415" y="-118" font-family="Helvetica,sans-Serif" font-size="10.00">Carte::estConstructible</text>
</a>
</g>
</g>
<!-- Node2&#45;&gt;Node5 -->
<g id="edge4_Node000002_Node000005" class="edge">
<title>Node2&#45;&gt;Node5</title>
<g id="a_edge4_Node000002_Node000005"><a xlink:title=" ">
<path fill="none" stroke="#63b8ff" d="M284.07,-93.03C306.84,-97.84 334.67,-103.73 358.73,-108.81"/>
<polygon fill="#63b8ff" stroke="#63b8ff" points="358.27,-112.3 368.78,-110.94 359.72,-105.45 358.27,-112.3"/>
</a>
</g>
</g>
<!-- Node7 -->
<g id="Node000007" class="node">
<title>Node7</title>
<g id="a_Node000007"><a xlink:href="classJoueur.html#ad18d1c7012dc9800669f44e5ec3e00d0" target="_top" xlink:title=" ">
<polygon fill="white" stroke="#666666" points="465.5,-93 364.5,-93 364.5,-74 465.5,-74 465.5,-93"/>
<text text-anchor="middle" x="415" y="-81" font-family="Helvetica,sans-Serif" font-size="10.00">Joueur::getArgent</text>
</a>
</g>
</g>
<!-- Node2&#45;&gt;Node7 -->
<g id="edge6_Node000002_Node000007" class="edge">
<title>Node2&#45;&gt;Node7</title>
<g id="a_edge6_Node000002_Node000007"><a xlink:title=" ">
<path fill="none" stroke="#63b8ff" d="M303.17,-83.5C319.89,-83.5 337.84,-83.5 354.32,-83.5"/>
<polygon fill="#63b8ff" stroke="#63b8ff" points="354.37,-87 364.37,-83.5 354.37,-80 354.37,-87"/>
</a>
</g>
</g>
<!-- Node8 -->
<g id="Node000008" class="node">
<title>Node8</title>
<g id="a_Node000008"><a xlink:href="classJoueur.html#ac333503e9a8a5c2e0501641fe45a2c42" target="_top" xlink:title=" ">
<polygon fill="white" stroke="#666666" points="455.5,-56 374.5,-56 374.5,-37 455.5,-37 455.5,-56"/>
<text text-anchor="middle" x="415" y="-44" font-family="Helvetica,sans-Serif" font-size="10.00">Joueur::payer</text>
</a>
</g>
</g>
<!-- Node2&#45;&gt;Node8 -->
<g id="edge7_Node000002_Node000008" class="edge">
<title>Node2&#45;&gt;Node8</title>
<g id="a_edge7_Node000002_Node000008"><a xlink:title=" ">
<path fill="none" stroke="#63b8ff" d="M284.07,-73.97C308.63,-68.78 339.09,-62.34 364.34,-57"/>
<polygon fill="#63b8ff" stroke="#63b8ff" points="365.39,-60.36 374.45,-54.86 363.94,-53.51 365.39,-60.36"/>
</a>
</g>
</g>
<!-- Node10 -->
<g id="Node000010" class="node">
<title>Node10</title>
<g id="a_Node000010"><a xlink:href="classGameWorld.html#a9e009f6b9f599713dd904208c1748d54" target="_top" xlink:title=" ">
<polygon fill="white" stroke="#666666" points="491,-19 339,-19 339,0 491,0 491,-19"/>
<text text-anchor="middle" x="415" y="-7" font-family="Helvetica,sans-Serif" font-size="10.00">GameWorld::tourExisteDeja</text>
</a>
</g>
</g>
<!-- Node2&#45;&gt;Node10 -->
<g id="edge9_Node000002_Node000010" class="edge">
<title>Node2&#45;&gt;Node10</title>
<g id="a_edge9_Node000002_Node000010"><a xlink:title=" ">
<path fill="none" stroke="#63b8ff" d="M253.66,-73.87C272.65,-61.77 307.11,-41.07 339,-28.5 345.3,-26.02 352.02,-23.78 358.76,-21.78"/>
<polygon fill="#63b8ff" stroke="#63b8ff" points="359.91,-25.09 368.6,-19.02 358.02,-18.35 359.91,-25.09"/>
</a>
</g>
</g>
<!-- Node4 -->
<g id="Node000004" class="node">
<title>Node4</title>
<g id="a_Node000004"><a xlink:href="classTextureManager.html#afb2cc454e6e3d0ee5038618626b3f218" target="_top" xlink:title=" ">
<polygon fill="white" stroke="#666666" points="648.5,-167 531.5,-167 531.5,-148 648.5,-148 648.5,-167"/>
<text text-anchor="middle" x="590" y="-155" font-family="Helvetica,sans-Serif" font-size="10.00">TextureManager::get</text>
</a>
</g>
</g>
<!-- Node3&#45;&gt;Node4 -->
<g id="edge3_Node000003_Node000004" class="edge">
<title>Node3&#45;&gt;Node4</title>
<g id="a_edge3_Node000003_Node000004"><a xlink:title=" ">
<path fill="none" stroke="#63b8ff" d="M476.02,-157.5C490.61,-157.5 506.31,-157.5 521.23,-157.5"/>
<polygon fill="#63b8ff" stroke="#63b8ff" points="521.42,-161 531.42,-157.5 521.42,-154 521.42,-161"/>
</a>
</g>
</g>
<!-- Node6 -->
<g id="Node000006" class="node">
<title>Node6</title>
<g id="a_Node000006"><a xlink:href="classCarte.html#a341fc2f88c60b555428ac440192e2ba4" target="_top" xlink:title=" ">
<polygon fill="white" stroke="#666666" points="653,-130 527,-130 527,-111 653,-111 653,-130"/>
<text text-anchor="middle" x="590" y="-118" font-family="Helvetica,sans-Serif" font-size="10.00">Carte::estDansLaCarte</text>
</a>
</g>
</g>
<!-- Node5&#45;&gt;Node6 -->
<g id="edge5_Node000005_Node000006" class="edge">
<title>Node5&#45;&gt;Node6</title>
<g id="a_edge5_Node000005_Node000006"><a xlink:title=" ">
<path fill="none" stroke="#63b8ff" d="M479.44,-120.5C491.49,-120.5 504.19,-120.5 516.5,-120.5"/>
<polygon fill="#63b8ff" stroke="#63b8ff" points="516.73,-124 526.73,-120.5 516.73,-117 516.73,-124"/>
</a>
</g>
</g>
<!-- Node9 -->
<g id="Node000009" class="node">
<title>Node9</title>
<g id="a_Node000009"><a xlink:href="classJoueur.html#ae6be60af6eb59da598453e39d3e6d5a7" target="_top" xlink:title=" ">
<polygon fill="white" stroke="#666666" points="641,-56 539,-56 539,-37 641,-37 641,-56"/>
<text text-anchor="middle" x="590" y="-44" font-family="Helvetica,sans-Serif" font-size="10.00">Joueur::peutPayer</text>
</a>
</g>
</g>
<!-- Node8&#45;&gt;Node9 -->
<g id="edge8_Node000008_Node000009" class="edge">
<title>Node8&#45;&gt;Node9</title>
<g id="a_edge8_Node000008_Node000009"><a xlink:title=" ">
<path fill="none" stroke="#63b8ff" d="M455.69,-46.5C477.34,-46.5 504.58,-46.5 528.79,-46.5"/>
<polygon fill="#63b8ff" stroke="#63b8ff" points="528.95,-50 538.95,-46.5 528.95,-43 528.95,-50"/>
</a>
</g>
</g>
</g>
</svg>
