<?xml version="1.0" encoding="UTF-8" standalone="no"?>
<!DOCTYPE svg PUBLIC "-//W3C//DTD SVG 1.1//EN"
 "http://www.w3.org/Graphics/SVG/1.1/DTD/svg11.dtd">
<!-- Generated by graphviz version 2.43.0 (0)
 -->
<!-- Title: src/jeu/game_input_handler.hpp Pages: 1 -->
<svg width="360pt" height="225pt"
 viewBox="0.00 0.00 359.50 225.00" xmlns="http://www.w3.org/2000/svg" xmlns:xlink="http://www.w3.org/1999/xlink">
<g id="graph0" class="graph" transform="scale(1 1) rotate(0) translate(4 221)">
<title>src/jeu/game_input_handler.hpp</title>
<!-- Node1 -->
<g id="Node000001" class="node">
<title>Node1</title>
<g id="a_Node000001"><a xlink:title=" ">
<polygon fill="#999999" stroke="#666666" points="181,-217 71,-217 71,-187 181,-187 181,-217"/>
<text text-anchor="start" x="79" y="-205" font-family="Helvetica,sans-Serif" font-size="10.00">src/jeu/game_input</text>
<text text-anchor="middle" x="126" y="-194" font-family="Helvetica,sans-Serif" font-size="10.00">_handler.hpp</text>
</a>
</g>
</g>
<!-- Node2 -->
<g id="Node000002" class="node">
<title>Node2</title>
<g id="a_Node000002"><a xlink:href="game__input__handler_8cpp.html" target="_top" xlink:title=" ">
<polygon fill="white" stroke="#666666" points="110,-151 0,-151 0,-121 110,-121 110,-151"/>
<text text-anchor="start" x="8" y="-139" font-family="Helvetica,sans-Serif" font-size="10.00">src/jeu/game_input</text>
<text text-anchor="middle" x="55" y="-128" font-family="Helvetica,sans-Serif" font-size="10.00">_handler.cpp</text>
</a>
</g>
</g>
<!-- Node1&#45;&gt;Node2 -->
<g id="edge1_Node000001_Node000002" class="edge">
<title>Node1&#45;&gt;Node2</title>
<g id="a_edge1_Node000001_Node000002"><a xlink:title=" ">
<path fill="none" stroke="#63b8ff" d="M102.62,-179.92C92.15,-170.49 80.08,-159.61 70.71,-151.16"/>
<polygon fill="#63b8ff" stroke="#63b8ff" points="100.47,-182.7 110.24,-186.8 105.16,-177.5 100.47,-182.7"/>
</a>
</g>
</g>
<!-- Node3 -->
<g id="Node000003" class="node">
<title>Node3</title>
<g id="a_Node000003"><a xlink:href="game__interaction__handler_8hpp.html" target="_top" xlink:title=" ">
<polygon fill="white" stroke="#666666" points="265.5,-151 128.5,-151 128.5,-121 265.5,-121 265.5,-151"/>
<text text-anchor="start" x="136.5" y="-139" font-family="Helvetica,sans-Serif" font-size="10.00">src/jeu/game_interaction</text>
<text text-anchor="middle" x="197" y="-128" font-family="Helvetica,sans-Serif" font-size="10.00">_handler.hpp</text>
</a>
</g>
</g>
<!-- Node1&#45;&gt;Node3 -->
<g id="edge2_Node000001_Node000003" class="edge">
<title>Node1&#45;&gt;Node3</title>
<g id="a_edge2_Node000001_Node000003"><a xlink:title=" ">
<path fill="none" stroke="#63b8ff" d="M149.38,-179.92C159.85,-170.49 171.92,-159.61 181.29,-151.16"/>
<polygon fill="#63b8ff" stroke="#63b8ff" points="146.84,-177.5 141.76,-186.8 151.53,-182.7 146.84,-177.5"/>
</a>
</g>
</g>
<!-- Node4 -->
<g id="Node000004" class="node">
<title>Node4</title>
<g id="a_Node000004"><a xlink:href="game__interaction__handler_8cpp.html" target="_top" xlink:title=" ">
<polygon fill="white" stroke="#666666" points="199.5,-85 62.5,-85 62.5,-55 199.5,-55 199.5,-85"/>
<text text-anchor="start" x="70.5" y="-73" font-family="Helvetica,sans-Serif" font-size="10.00">src/jeu/game_interaction</text>
<text text-anchor="middle" x="131" y="-62" font-family="Helvetica,sans-Serif" font-size="10.00">_handler.cpp</text>
</a>
</g>
</g>
<!-- Node3&#45;&gt;Node4 -->
<g id="edge3_Node000003_Node000004" class="edge">
<title>Node3&#45;&gt;Node4</title>
<g id="a_edge3_Node000003_Node000004"><a xlink:title=" ">
<path fill="none" stroke="#63b8ff" d="M174.98,-113.65C165.31,-104.27 154.23,-93.53 145.61,-85.16"/>
<polygon fill="#63b8ff" stroke="#63b8ff" points="172.74,-116.35 182.35,-120.8 177.61,-111.32 172.74,-116.35"/>
</a>
</g>
</g>
<!-- Node5 -->
<g id="Node000005" class="node">
<title>Node5</title>
<g id="a_Node000005"><a xlink:href="jeu_8hpp.html" target="_top" xlink:title=" ">
<polygon fill="white" stroke="#666666" points="306,-79.5 218,-79.5 218,-60.5 306,-60.5 306,-79.5"/>
<text text-anchor="middle" x="262" y="-67.5" font-family="Helvetica,sans-Serif" font-size="10.00">src/jeu/jeu.hpp</text>
</a>
</g>
</g>
<!-- Node3&#45;&gt;Node5 -->
<g id="edge4_Node000003_Node000005" class="edge">
<title>Node3&#45;&gt;Node5</title>
<g id="a_edge4_Node000003_Node000005"><a xlink:title=" ">
<path fill="none" stroke="#63b8ff" d="M218.73,-113.6C230.42,-102.1 244.2,-88.52 253.02,-79.84"/>
<polygon fill="#63b8ff" stroke="#63b8ff" points="216.1,-111.29 211.43,-120.8 221.01,-116.27 216.1,-111.29"/>
</a>
</g>
</g>
<!-- Node6 -->
<g id="Node000006" class="node">
<title>Node6</title>
<g id="a_Node000006"><a xlink:href="jeu_8cpp.html" target="_top" xlink:title=" ">
<polygon fill="white" stroke="#666666" points="254.5,-19 167.5,-19 167.5,0 254.5,0 254.5,-19"/>
<text text-anchor="middle" x="211" y="-7" font-family="Helvetica,sans-Serif" font-size="10.00">src/jeu/jeu.cpp</text>
</a>
</g>
</g>
<!-- Node5&#45;&gt;Node6 -->
<g id="edge5_Node000005_Node000006" class="edge">
<title>Node5&#45;&gt;Node6</title>
<g id="a_edge5_Node000005_Node000006"><a xlink:title=" ">
<path fill="none" stroke="#63b8ff" d="M247.85,-52.77C238.37,-41.89 226.25,-27.99 218.56,-19.17"/>
<polygon fill="#63b8ff" stroke="#63b8ff" points="245.27,-55.13 254.47,-60.37 250.54,-50.53 245.27,-55.13"/>
</a>
</g>
</g>
<!-- Node7 -->
<g id="Node000007" class="node">
<title>Node7</title>
<g id="a_Node000007"><a xlink:href="main_8cpp.html" target="_top" xlink:title=" ">
<polygon fill="white" stroke="#666666" points="351.5,-19 272.5,-19 272.5,0 351.5,0 351.5,-19"/>
<text text-anchor="middle" x="312" y="-7" font-family="Helvetica,sans-Serif" font-size="10.00">src/main.cpp</text>
</a>
</g>
</g>
<!-- Node5&#45;&gt;Node7 -->
<g id="edge6_Node000005_Node000007" class="edge">
<title>Node5&#45;&gt;Node7</title>
<g id="a_edge6_Node000005_Node000007"><a xlink:title=" ">
<path fill="none" stroke="#63b8ff" d="M276.14,-52.45C285.4,-41.62 297.12,-27.91 304.59,-19.17"/>
<polygon fill="#63b8ff" stroke="#63b8ff" points="273.21,-50.49 269.38,-60.37 278.54,-55.04 273.21,-50.49"/>
</a>
</g>
</g>
</g>
</svg>
