<?xml version="1.0" encoding="UTF-8" standalone="no"?>
<!DOCTYPE svg PUBLIC "-//W3C//DTD SVG 1.1//EN"
 "http://www.w3.org/Graphics/SVG/1.1/DTD/svg11.dtd">
<!-- Generated by graphviz version 2.43.0 (0)
 -->
<!-- Title: Graphical Class Hierarchy Pages: 1 -->
<svg width="194pt" height="101pt"
 viewBox="0.00 0.00 194.00 101.00" xmlns="http://www.w3.org/2000/svg" xmlns:xlink="http://www.w3.org/1999/xlink">
<g id="graph0" class="graph" transform="scale(1 1) rotate(0) translate(4 97)">
<title>Graphical Class Hierarchy</title>
<!-- Node0 -->
<g id="Node000000" class="node">
<title>Node0</title>
<g id="a_Node000000"><a xlink:href="classBoutton.html" target="_top" xlink:title=" ">
<polygon fill="white" stroke="#666666" points="55,-56 0,-56 0,-37 55,-37 55,-56"/>
<text text-anchor="middle" x="27.5" y="-44" font-family="Helvetica,sans-Serif" font-size="10.00">Boutton</text>
</a>
</g>
</g>
<!-- Node1 -->
<g id="Node000001" class="node">
<title>Node1</title>
<g id="a_Node000001"><a xlink:href="classBouttonLevelUp.html" target="_top" xlink:title=" ">
<polygon fill="white" stroke="#666666" points="186,-93 91,-93 91,-74 186,-74 186,-93"/>
<text text-anchor="middle" x="138.5" y="-81" font-family="Helvetica,sans-Serif" font-size="10.00">BouttonLevelUp</text>
</a>
</g>
</g>
<!-- Node0&#45;&gt;Node1 -->
<g id="edge1_Node000000_Node000001" class="edge">
<title>Node0&#45;&gt;Node1</title>
<g id="a_edge1_Node000000_Node000001"><a xlink:title=" ">
<path fill="none" stroke="#63b8ff" d="M64.81,-58.82C79.27,-63.73 95.65,-69.3 109.21,-73.9"/>
<polygon fill="#63b8ff" stroke="#63b8ff" points="65.76,-55.45 55.16,-55.55 63.51,-62.08 65.76,-55.45"/>
</a>
</g>
</g>
<!-- Node2 -->
<g id="Node000002" class="node">
<title>Node2</title>
<g id="a_Node000002"><a xlink:href="classBouttonVague.html" target="_top" xlink:title=" ">
<polygon fill="white" stroke="#666666" points="181,-56 96,-56 96,-37 181,-37 181,-56"/>
<text text-anchor="middle" x="138.5" y="-44" font-family="Helvetica,sans-Serif" font-size="10.00">BouttonVague</text>
</a>
</g>
</g>
<!-- Node0&#45;&gt;Node2 -->
<g id="edge2_Node000000_Node000002" class="edge">
<title>Node0&#45;&gt;Node2</title>
<g id="a_edge2_Node000000_Node000002"><a xlink:title=" ">
<path fill="none" stroke="#63b8ff" d="M65.38,-46.5C75.16,-46.5 85.8,-46.5 95.82,-46.5"/>
<polygon fill="#63b8ff" stroke="#63b8ff" points="65.16,-43 55.16,-46.5 65.16,-50 65.16,-43"/>
</a>
</g>
</g>
<!-- Node3 -->
<g id="Node000003" class="node">
<title>Node3</title>
<g id="a_Node000003"><a xlink:href="classBouttonVendre.html" target="_top" xlink:title=" ">
<polygon fill="white" stroke="#666666" points="183,-19 94,-19 94,0 183,0 183,-19"/>
<text text-anchor="middle" x="138.5" y="-7" font-family="Helvetica,sans-Serif" font-size="10.00">BouttonVendre</text>
</a>
</g>
</g>
<!-- Node0&#45;&gt;Node3 -->
<g id="edge3_Node000000_Node000003" class="edge">
<title>Node0&#45;&gt;Node3</title>
<g id="a_edge3_Node000000_Node000003"><a xlink:title=" ">
<path fill="none" stroke="#63b8ff" d="M64.81,-34.18C79.27,-29.27 95.65,-23.7 109.21,-19.1"/>
<polygon fill="#63b8ff" stroke="#63b8ff" points="63.51,-30.92 55.16,-37.45 65.76,-37.55 63.51,-30.92"/>
</a>
</g>
</g>
</g>
</svg>
